<?xml version="1.0" encoding="utf-8"?>
<!-- Generator: Adobe Illustrator 19.1.0, SVG Export Plug-In . SVG Version: 6.00 Build 0)  -->
<svg version="1.1" id="Layer_1" xmlns="http://www.w3.org/2000/svg" xmlns:xlink="http://www.w3.org/1999/xlink" x="0px" y="0px"
	 viewBox="206 13 1024 768" style="enable-background:new 206 13 1024 768;" xml:space="preserve">
<style type="text/css">
	.st0{fill:#FFFFFF;}
	.st1{opacity:0.4;fill:none;stroke:#BBBDBF;stroke-miterlimit:10;enable-background:new    ;}
</style>
<rect x="206.3" y="13" class="st0" width="1023.7" height="768"/>
<g>
	<line class="st1" x1="206.3" y1="180.4" x2="380.9" y2="180.4"/>
	<line class="st1" x1="349" y1="180.4" x2="349" y2="149.4"/>
	<line class="st1" x1="305.4" y1="250.2" x2="305.4" y2="180.4"/>
	<line class="st1" x1="206.3" y1="540" x2="480.4" y2="540"/>
	<line class="st1" x1="206.3" y1="449.5" x2="305.4" y2="449.5"/>
	<line class="st1" x1="480.4" y1="540" x2="480.4" y2="473.2"/>
	<line class="st1" x1="278.8" y1="540" x2="278.8" y2="506.6"/>
	<line class="st1" x1="429.9" y1="617.2" x2="429.9" y2="540"/>
	<line class="st1" x1="305.4" y1="449.9" x2="305.4" y2="386.8"/>
	<line class="st1" x1="206.3" y1="340.1" x2="438.3" y2="340.1"/>
	<line class="st1" x1="438.3" y1="371.2" x2="438.3" y2="340.5"/>
	<line class="st1" x1="1229.7" y1="613.8" x2="1055.1" y2="613.8"/>
	<line class="st1" x1="1087" y1="613.8" x2="1087" y2="644.5"/>
	<line class="st1" x1="1130.6" y1="544" x2="1130.6" y2="613.8"/>
	<line class="st1" x1="1229.7" y1="254.2" x2="955.6" y2="254.2"/>
	<line class="st1" x1="1229.7" y1="344.6" x2="1130.6" y2="344.6"/>
	<line class="st1" x1="955.6" y1="254.2" x2="955.6" y2="321"/>
	<line class="st1" x1="1157.2" y1="254.2" x2="1157.2" y2="287.5"/>
	<line class="st1" x1="1006.1" y1="177" x2="1006.1" y2="254.2"/>
	<line class="st1" x1="1130.6" y1="344.2" x2="1130.6" y2="407.4"/>
	<line class="st1" x1="1229.7" y1="454.1" x2="997.7" y2="454.1"/>
	<line class="st1" x1="997.7" y1="422.8" x2="997.7" y2="453.7"/>
</g>
</svg>
