<?xml version="1.0" encoding="utf-8"?>
<!-- Generator: Adobe Illustrator 19.1.0, SVG Export Plug-In . SVG Version: 6.00 Build 0)  -->
<svg version="1.1" id="Layer_1" xmlns="http://www.w3.org/2000/svg" xmlns:xlink="http://www.w3.org/1999/xlink" x="0px" y="0px"
	 viewBox="497 -369 1024 768" style="enable-background:new 497 -369 1024 768;" xml:space="preserve">
<style type="text/css">
	.st0{opacity:0.4;fill:none;stroke:#BBBDBF;stroke-miterlimit:10;enable-background:new    ;}
</style>
<line class="st0" x1="497" y1="-237.8" x2="671.6" y2="-237.8"/>
<line class="st0" x1="639.7" y1="-237.8" x2="639.7" y2="-268.7"/>
<line class="st0" x1="596.1" y1="-168" x2="596.1" y2="-237.8"/>
<line class="st0" x1="497" y1="121.8" x2="771.1" y2="121.8"/>
<line class="st0" x1="497" y1="31.3" x2="596.1" y2="31.3"/>
<line class="st0" x1="771.1" y1="121.8" x2="771.1" y2="55"/>
<line class="st0" x1="569.5" y1="121.8" x2="569.5" y2="88.4"/>
<line class="st0" x1="720.6" y1="199" x2="720.6" y2="121.8"/>
<line class="st0" x1="596.1" y1="31.7" x2="596.1" y2="-31.4"/>
<line class="st0" x1="497" y1="-78.1" x2="729" y2="-78.1"/>
<line class="st0" x1="729" y1="-46.9" x2="729" y2="-77.7"/>
<line class="st0" x1="1520.4" y1="195.6" x2="1345.8" y2="195.6"/>
<line class="st0" x1="1377.7" y1="195.6" x2="1377.7" y2="226.4"/>
<line class="st0" x1="1421.3" y1="125.8" x2="1421.3" y2="195.6"/>
<line class="st0" x1="1520.4" y1="-164" x2="1246.3" y2="-164"/>
<line class="st0" x1="1520.4" y1="-73.6" x2="1421.3" y2="-73.6"/>
<line class="st0" x1="1246.3" y1="-164" x2="1246.3" y2="-97.2"/>
<line class="st0" x1="1447.9" y1="-164" x2="1447.9" y2="-130.6"/>
<line class="st0" x1="1296.8" y1="-241.2" x2="1296.8" y2="-164"/>
<line class="st0" x1="1421.3" y1="-74" x2="1421.3" y2="-10.8"/>
<line class="st0" x1="1520.4" y1="35.9" x2="1288.4" y2="35.9"/>
<line class="st0" x1="1288.4" y1="4.6" x2="1288.4" y2="35.5"/>
</svg>
