<?xml version="1.0" encoding="utf-8"?>
<!-- Generator: Adobe Illustrator 18.1.0, SVG Export Plug-In . SVG Version: 6.00 Build 0)  -->
<svg version="1.1" id="Calque_1" xmlns="http://www.w3.org/2000/svg" xmlns:xlink="http://www.w3.org/1999/xlink" x="0px" y="0px"
	 viewBox="-654 434.9 24 24" enable-background="new -654 434.9 24 24" xml:space="preserve">
<path fill="#F47D67" d="M-642,435.9c1.1,0,2.1,0.3,3,0.8c0.9,0.5,1.6,1.3,2.2,2.2c0.5,0.9,0.8,1.9,0.8,3v1c0,0.3-0.1,0.5-0.3,0.7
	c-0.2,0.2-0.4,0.3-0.7,0.3s-0.5-0.1-0.7-0.3c-0.2-0.2-0.3-0.4-0.3-0.7v-1c0-1.1-0.4-2-1.2-2.8c-0.8-0.8-1.7-1.2-2.8-1.2
	s-2,0.4-2.8,1.2c-0.8,0.8-1.2,1.7-1.2,2.8v4h12c0.8,0,1.5,0.3,2.1,0.9s0.9,1.3,0.9,2.1v6c0,0.8-0.3,1.5-0.9,2.1s-1.3,0.9-2.1,0.9
	h-16c-0.8,0-1.5-0.3-2.1-0.9s-0.9-1.3-0.9-2.1v-6c0-0.8,0.3-1.5,0.9-2.1s1.3-0.9,2.1-0.9h2v-4c0-1.1,0.3-2.1,0.8-3
	c0.5-0.9,1.3-1.6,2.2-2.2C-644.1,436.2-643.1,435.9-642,435.9L-642,435.9z M-634,447.9h-16c-0.3,0-0.5,0.1-0.7,0.3
	c-0.2,0.2-0.3,0.4-0.3,0.7v6c0,0.3,0.1,0.5,0.3,0.7c0.2,0.2,0.4,0.3,0.7,0.3h16c0.3,0,0.5-0.1,0.7-0.3c0.2-0.2,0.3-0.4,0.3-0.7v-6
	c0-0.3-0.1-0.5-0.3-0.7C-633.5,448-633.7,447.9-634,447.9z"/>
</svg>
