<?xml version="1.0" encoding="utf-8"?>
<!-- Generator: Adobe Illustrator 18.1.0, SVG Export Plug-In . SVG Version: 6.00 Build 0)  -->
<svg version="1.1" id="Calque_1" xmlns="http://www.w3.org/2000/svg" xmlns:xlink="http://www.w3.org/1999/xlink" x="0px" y="0px"
	 viewBox="0 0 196.7 196.7" enable-background="new 0 0 196.7 196.7" xml:space="preserve">
<path fill="#F27D67" d="M92,2.7c1.8-1.8,4-2.7,6.4-2.7c2.4,0,4.5,0.9,6.4,2.7c1.8,1.8,2.7,3.9,2.7,6.4l-0.1,80.2l80.2-0.1
	c2.5,0,4.6,0.9,6.4,2.7c1.8,1.8,2.7,4,2.7,6.4s-0.9,4.5-2.7,6.4c-1.8,1.8-3.9,2.7-6.4,2.7l-80.2-0.1l0.1,80.2c0,2.5-0.9,4.6-2.7,6.4
	c-1.8,1.8-4,2.7-6.4,2.7c-2.4,0-4.5-0.9-6.4-2.7c-1.8-1.8-2.7-3.9-2.7-6.4l0.1-80.2l-80.2,0.1c-2.5,0-4.6-0.9-6.4-2.7
	c-1.8-1.8-2.7-4-2.7-6.4c0-2.4,0.9-4.5,2.7-6.4c1.8-1.8,3.9-2.7,6.4-2.7l80.2,0.1L89.3,9.1C89.3,6.7,90.2,4.5,92,2.7z"/>
</svg>
