<?xml version="1.0" encoding="utf-8"?>
<!-- Generator: Adobe Illustrator 19.1.0, SVG Export Plug-In . SVG Version: 6.00 Build 0)  -->
<svg version="1.1" id="Layer_1" xmlns="http://www.w3.org/2000/svg" xmlns:xlink="http://www.w3.org/1999/xlink" x="0px" y="0px"
	 viewBox="0 0 100 200" style="enable-background:new 0 0 100 200;" xml:space="preserve">
<style type="text/css">
	.st0{fill:#CFCECE;}
</style>
<path class="st0" d="M42,139h16c0.8,0,1.5,0.3,2.1,0.9s0.9,1.3,0.9,2.1v16c0,0.8-0.3,1.5-0.9,2.1S58.8,161,58,161H42
	c-0.8,0-1.5-0.3-2.1-0.9c-0.6-0.6-0.9-1.3-0.9-2.1v-16c0-0.8,0.3-1.5,0.9-2.1C40.5,139.3,41.2,139,42,139z M59,155.4l-5-5l-8.6,8.6
	H58c0.3,0,0.5-0.1,0.7-0.3c0.2-0.2,0.3-0.4,0.3-0.7V155.4z M58,141H42c-0.3,0-0.5,0.1-0.7,0.3c-0.2,0.2-0.3,0.4-0.3,0.7v16
	c0,0.3,0.1,0.5,0.3,0.7c0.2,0.2,0.4,0.3,0.7,0.3h0.6L54,147.6l5,5V142c0-0.3-0.1-0.5-0.3-0.7C58.5,141.1,58.3,141,58,141z M46,143
	c0.8,0,1.5,0.3,2.1,0.9c0.6,0.6,0.9,1.3,0.9,2.1s-0.3,1.5-0.9,2.1c-0.6,0.6-1.3,0.9-2.1,0.9c-0.8,0-1.5-0.3-2.1-0.9
	c-0.6-0.6-0.9-1.3-0.9-2.1s0.3-1.5,0.9-2.1C44.5,143.3,45.2,143,46,143z M46,145c-0.3,0-0.5,0.1-0.7,0.3c-0.2,0.2-0.3,0.4-0.3,0.7
	s0.1,0.5,0.3,0.7c0.2,0.2,0.4,0.3,0.7,0.3s0.5-0.1,0.7-0.3c0.2-0.2,0.3-0.4,0.3-0.7s-0.1-0.5-0.3-0.7C46.5,145.1,46.3,145,46,145z"
	/>
<path class="st0" d="M53,40.5c1.2,0,2.4,0.2,3.5,0.7s2.1,1.1,2.9,1.9c0.8,0.8,1.4,1.8,1.9,2.9c0.5,1.1,0.7,2.3,0.7,3.5
	c0,1.1-0.2,2.2-0.6,3.3c-0.4,1-1,2-1.7,2.8c-0.7,0.8-1.6,1.4-2.5,2c-1,0.5-2,0.8-3.1,1v-2c1.1-0.2,2.1-0.6,3.1-1.2s1.6-1.5,2.2-2.5
	c0.5-1,0.8-2.1,0.8-3.2c0-0.9-0.2-1.9-0.6-2.7c-0.4-0.9-0.9-1.6-1.5-2.2c-0.6-0.6-1.4-1.1-2.2-1.5c-0.9-0.4-1.8-0.6-2.7-0.6
	c-0.9,0-1.7,0.2-2.5,0.5c-0.8,0.3-1.5,0.7-2.1,1.3s-1.1,1.2-1.5,1.9c-0.4,0.7-0.7,1.5-0.8,2.4H44c-1.1,0-2,0.4-2.8,1.2
	S40,51.4,40,52.5c0,0.6,0.1,1.2,0.4,1.7c0.2,0.5,0.5,0.9,0.9,1.3c0.4,0.3,0.8,0.6,1.3,0.8c0.5,0.2,0.9,0.3,1.4,0.3h4v2h-4
	c-1.1,0-2.1-0.3-3-0.8c-0.9-0.5-1.6-1.3-2.2-2.2s-0.8-1.9-0.8-3c0-1.1,0.3-2.1,0.8-3s1.3-1.6,2.2-2.2c0.9-0.5,1.9-0.8,3-0.8h0.5
	c0.4-1.2,1-2.2,1.9-3.1c0.8-0.9,1.8-1.6,3-2.1C50.5,40.8,51.7,40.5,53,40.5L53,40.5z M51,48.5c0.3,0,0.5,0.1,0.7,0.3l3,3
	c0.2,0.2,0.3,0.4,0.3,0.7c0,0.3-0.1,0.5-0.3,0.7c-0.2,0.2-0.4,0.3-0.7,0.3c-0.3,0-0.5-0.1-0.7-0.3L52,51.9v6.6
	c0,0.3-0.1,0.5-0.3,0.7c-0.2,0.2-0.4,0.3-0.7,0.3c-0.3,0-0.5-0.1-0.7-0.3C50.1,59,50,58.8,50,58.5v-6.6l-1.3,1.3
	c-0.2,0.2-0.4,0.3-0.7,0.3c-0.3,0-0.5-0.1-0.7-0.3C47.1,53,47,52.8,47,52.5c0-0.3,0.1-0.5,0.3-0.7l3-3C50.5,48.6,50.7,48.5,51,48.5z
	"/>
</svg>
