<?xml version="1.0" encoding="utf-8"?>
<!-- Generator: Adobe Illustrator 18.1.0, SVG Export Plug-In . SVG Version: 6.00 Build 0)  -->
<svg version="1.1" id="Layer_1" xmlns="http://www.w3.org/2000/svg" xmlns:xlink="http://www.w3.org/1999/xlink" x="0px" y="0px"
	 viewBox="4.5 480.3 880.9 286.7" enable-background="new 4.5 480.3 880.9 286.7" xml:space="preserve">
<g opacity="0.3">
	<g>
		
			<rect x="39.3" y="611.4" transform="matrix(0.7071 0.7071 -0.7071 0.7071 459.3553 121.4181)" fill="#FFFFFF" width="87.7" height="7.5"/>
		<path fill="#F47E67" d="M111.6,651.5L47,586.8l8-8l64.6,64.6L111.6,651.5z M52.3,586.8l59.3,59.3l2.7-2.7L55,584.2L52.3,586.8z"/>
	</g>
	<g>
		
			<rect x="91" y="632.8" transform="matrix(0.7071 0.7071 -0.7071 0.7071 480.7327 112.5157)" fill="#FFFFFF" width="27.1" height="7.5"/>
		<path fill="#F47E67" d="M111.6,651.5l-22-22l8-8l22,22L111.6,651.5z M95,629.5l16.6,16.6l2.7-2.7l-16.6-16.6L95,629.5z"/>
	</g>
	<g>
		
			<rect x="93" y="574" transform="matrix(0.7071 0.7071 -0.7071 0.7071 448.0761 106.3454)" fill="#FFFFFF" width="5.4" height="40"/>
		<path fill="#F47E67" d="M83.6,612.7l-6.4-6.4l31.1-31.1l6.4,6.4L83.6,612.7z M82.5,606.3l1.1,1.1l25.7-25.7l-1.1-1.1L82.5,606.3z"
			/>
	</g>
	<g>
		
			<rect x="27.5" y="580" transform="matrix(0.7071 0.7071 -0.7071 0.7071 440.2007 157.3391)" fill="#FFFFFF" width="5.4" height="60"/>
		<path fill="#F47E67" d="M10.9,635.8l-6.4-6.4l45.2-45.2l6.4,6.4L10.9,635.8z M9.8,629.4l1.1,1.1l39.8-39.8l-1.1-1.1L9.8,629.4z"/>
	</g>
	<g>
		
			<rect x="66.5" y="618.9" transform="matrix(0.7071 0.7071 -0.7071 0.7071 479.099 141.1395)" fill="#FFFFFF" width="5.4" height="60"/>
		<path fill="#F47E67" d="M49.8,674.7l-6.4-6.4l45.2-45.2l6.4,6.4L49.8,674.7z M48.8,668.3l1.1,1.1l39.8-39.8l-1.1-1.1L48.8,668.3z"
			/>
	</g>
	<g>
		
			<rect x="52.3" y="604.9" transform="matrix(0.7071 0.7071 -0.7071 0.7071 465.0677 147.0572)" fill="#FFFFFF" width="5.4" height="60"/>
		<path fill="#F47E67" d="M35.7,660.6l-6.4-6.4L74.5,609l6.4,6.4L35.7,660.6z M34.6,654.2l1.1,1.1l39.8-39.8l-1.1-1.1L34.6,654.2z"
			/>
	</g>
	<g>
		
			<rect x="85.7" y="638.3" transform="matrix(0.7071 0.7071 -0.7071 0.7071 498.4604 133.2247)" fill="#FFFFFF" width="5.4" height="60"/>
		<path fill="#F47E67" d="M69.1,694l-6.4-6.4l45.2-45.2l6.4,6.4L69.1,694z M68,687.6l1.1,1.1l39.8-39.8l-1.1-1.1L68,687.6z"/>
	</g>
	<g>
		
			<rect x="126.4" y="607.4" transform="matrix(0.7071 0.7071 -0.7071 0.7071 481.4687 92.513)" fill="#FFFFFF" width="5.4" height="40"/>
		<path fill="#F47E67" d="M117,646.1l-6.4-6.4l31.1-31.1l6.4,6.4L117,646.1z M115.9,639.7l1.1,1.1l25.7-25.7l-1.1-1.1L115.9,639.7z"
			/>
	</g>
	<g>
		<path fill="#FFFFFF" d="M157.2,592.4L130.7,566c-2.9-2.9-7.7-2.9-10.7,0l-26.1,26.3l37.1,37.1l26.1-26.3
			C160.2,600.2,160.2,595.4,157.2,592.4z"/>
		<path fill="#F47E67" d="M131.1,632l-39.8-39.8l27.5-27.5c3.8-3.8,9.6-3.8,13.4,0l26.4,26.4c3.8,3.8,3.8,9.6,0,13.4L131.1,632z
			 M96.6,592.2l34.5,34.5l24.8-24.8c2.1-2.1,2.1-5.9,0-8l-26.4-26.4c-2.1-2.1-5.9-2.1-8,0L96.6,592.2z"/>
	</g>
</g>
<g opacity="0.3">
	<g>
		<path fill="#F47E67" d="M775.6,555.8c-2.1,0-4.1-0.5-5.9-1.6c-2.3-1.4-4.1-3.8-4.6-6.6c-0.7-3-0.2-6.3,1.3-8.8
			c1.4-2.3,3.8-4.1,6.6-4.6l41.1-11.8c3-0.7,6.3-0.4,8.9,1.3c2.3,1.4,4.1,3.8,4.6,6.6c0.7,2.7,0.2,5.7-1.3,8.2
			c-1.4,2.5-3.9,4.5-6.6,5.2l-41.1,11.8C777.5,555.6,776.7,555.8,775.6,555.8z M817,527.4c-0.5,0-1.1,0-1.6,0.2l-41.1,11.8
			c-2,0.4-2.9,1.4-3.4,2.3c-0.9,1.3-1.1,3-0.7,4.6c0.4,1.8,1.4,2.9,2.3,3.2c1.3,0.9,3,1.1,4.6,0.7l41.3-11.8
			c1.3-0.4,2.5-1.3,3.2-2.7c0.7-1.4,1.1-2.9,0.7-4.3c-0.4-1.8-1.4-2.9-2.3-3.2C819.3,527.6,818.3,527.4,817,527.4z"/>
	</g>
	<g>
		<path fill="#F47E67" d="M837.7,728.5c-8,0-16.1-2-23.2-6.1c-10.9-6.3-18.8-16.3-22-28.4l-9.8-33.2c-0.9-3.2-0.5-6.8,1.1-9.6
			c1.6-2.9,4.5-5,7.7-6.1l66.6-19.3c6.8-2,13.6,1.8,15.7,8.8l9.6,33.2c3.6,11.6,2.1,24.1-3.8,35.2c-6.1,11.3-16.4,19.8-28.6,23.4
			l0,0C846.7,727.8,842.2,728.5,837.7,728.5z M861.7,630.8c-0.7,0-1.3,0.2-2,0.4l-66.6,19.3c-2,0.5-3.6,1.8-4.5,3.6
			c-0.9,1.6-1.3,3.6-0.7,5.5l9.6,33.2c2.9,10.7,9.8,19.6,19.5,25.2c9.8,5.5,21.6,6.8,32.5,3.6l0,0c10.9-3.2,20-10.5,25.4-20.7
			c5.4-9.8,6.4-20.9,3.4-31.3l-9.6-33.2C867.7,632.9,864.7,630.8,861.7,630.8z"/>
	</g>
	<g>
		<path fill="#F47E67" d="M837.5,716c-15.2,0-29.1-9.8-33.9-25.2l-8.6-31.3c-0.4-1.4,0.4-2.9,2-3.2c1.4-0.4,2.9,0.4,3.2,1.8
			l8.8,31.3c4.8,15.7,21.1,24.6,37,20.2c15.7-4.8,24.6-21.1,20.2-37l-9.1-31.1c-0.4-1.4,0.4-2.9,1.8-3.4c1.4-0.4,2.9,0.4,3.4,1.8
			l9.1,31.1c5.2,18.6-5.2,37.7-23.8,43.6C844.2,715.6,840.8,716,837.5,716z"/>
	</g>
	<g>
		<path fill="#FFFFFF" d="M791.3,521.7L791.3,521.7c-4.8,1.6-7.5,6.4-5.9,10.7l31.1,107.9l16.6-4.8l-31.6-107.9
			C800.9,523.3,796.1,520.6,791.3,521.7z"/>
		<path fill="#F47E67" d="M814.7,643.6l-31.8-110.4c-0.9-2.3-0.7-5.2,0.5-7.9c1.4-2.9,3.9-5.2,7.1-6.3h0.2c3.4-0.7,6.8-0.2,9.5,1.8
			c2.3,1.6,3.6,3.9,3.9,6.4l32.3,110L814.7,643.6z M792,524.3c-1.8,0.5-3.2,1.8-3.9,3.4c-0.4,0.9-0.7,2.3-0.2,3.8l30.4,105.4
			l11.4-3.4l-30.9-105.2c-0.2-1.8-1.1-2.7-1.8-3C795.8,524.2,793.8,523.8,792,524.3z"/>
	</g>
	<g>
		<path fill="#F47E67" d="M812.7,628.5c-1.3,0-2.3-0.7-2.5-2c-0.4-1.4,0.4-2.9,1.8-3.4l16.6-4.8c1.4-0.4,2.9,0.4,3.4,1.8
			c0.4,1.4-0.4,2.9-1.8,3.4l-16.6,4.8C813.3,628.5,812.9,628.5,812.7,628.5z"/>
	</g>
</g>
<g opacity="0.3">
	<g>
		<circle fill="#FFFFFF" cx="373.4" cy="563.8" r="32.7"/>
		<path fill="#F47E67" d="M373.4,599c-19.3,0-35.2-15.7-35.2-35.2c0-19.5,15.9-35.2,35.2-35.2s35.2,15.7,35.2,35.2
			C408.6,583.3,392.9,599,373.4,599z M373.4,533.6c-16.6,0-30.2,13.6-30.2,30.2c0,16.6,13.6,30.2,30.2,30.2
			c16.6,0,30.2-13.6,30.2-30.2C403.6,547.2,390.2,533.6,373.4,533.6z"/>
	</g>
	<g>
		<path fill="#F47E67" d="M365.7,572.6l-3.9-6.8c-0.9-1.4-0.9-2.9,0-4.5l3.9-6.8c0.9-1.4,2-2,3.4-2h8.2c1.4,0,2.9,0.9,3.4,2l3.9,6.8
			c0.9,1.4,0.9,2.9,0,4.5l-3.9,6.8c-0.5,1.4-1.4,2.5-3.4,2.5h-8.2C368.1,575.1,366.6,574,365.7,572.6z"/>
	</g>
	<g>
		<path fill="#F47E67" d="M361.8,533.1l3.9,7.9c0.9,1.4,2,2,3.4,2h8.2c1.4,0,2.9-0.9,3.4-2l4.5-7.3c-3.9-1.4-7.9-2.5-12.1-2.5
			S365.2,531.7,361.8,533.1z"/>
	</g>
	<g>
		<path fill="#F47E67" d="M394.5,565.8l3.9,6.8c0.9,1.4,2,2,3.4,2h2c1.4-3.4,2-7.3,2-11.3c0-3.9-0.9-7.9-2-11.3h-2
			c-1.4,0-2.9,0.9-3.4,2l-3.9,6.8C393.4,562.9,393.4,564.3,394.5,565.8z"/>
	</g>
	<g>
		<path fill="#F47E67" d="M345.2,552h-2c-1.4,3.4-2,7.3-2,11.3c0,3.9,0.9,7.9,2,11.3h2c1.4,0,2.9-0.9,3.4-2l3.9-6.8
			c0.9-1.4,0.9-2.9,0-4.5l-3.9-6.8C347.7,553.1,346.6,552,345.2,552z"/>
	</g>
	<g>
		<path fill="#F47E67" d="M361.8,594c3.4,1.4,7.9,2.5,11.8,2.5c4.5,0,8.2-0.9,11.8-2.5l-3.9-6.8c-0.9-1.4-2-2.5-3.9-2.5h-8.2
			c-1.4,0-2.9,0.9-3.4,2L361.8,594z"/>
	</g>
</g>
<g opacity="0.3">
	<g>
		
			<rect x="580.7" y="540.6" transform="matrix(-0.4305 0.9026 -0.9026 -0.4305 1374.1761 326.1881)" fill="#FFFFFF" width="7" height="112"/>
		<path fill="#F47E67" d="M529.7,576.5l4.6-9.6l104.5,49.8l-4.6,9.6L529.7,576.5z M536.1,572l-1.3,2.7l97.5,46.6l1.3-2.7L536.1,572z
			"/>
	</g>
	<g>
		<path fill="#FFFFFF" d="M633.8,620.2L633.8,620.2c1.3-2.7,4.8-4.1,7.7-2.7l2.7,1.3l-5.2,10.7l-2.7-1.3
			C633.6,626.5,632.4,622.9,633.8,620.2z"/>
		<path fill="#F47E67" d="M632,619.4c1.8-3.8,6.4-5.4,10.2-3.6l4.5,2.1l-6.8,14.1l-4.5-2.1C631.8,627.6,630.4,622.9,632,619.4z
			 M641.6,619.7l-1.1-0.5c-1.8-0.9-4.3,0-5.2,1.8c-0.9,1.8,0,4.3,1.8,5.5l0.9,0.4L641.6,619.7z"/>
	</g>
	<g>
		<path fill="#FFFFFF" d="M639.9,623.3L639.9,623.3c3-6.3,10.5-8.9,16.8-5.9l19.3,9.3c6.3,3,8.9,10.5,5.9,16.8l0,0
			c-3,6.3-10.5,8.9-16.8,5.9l-19.3-9.3C639.9,636.7,637,629.4,639.9,623.3z"/>
		<path fill="#F47E67" d="M638.3,622.4c3.4-7.1,12.3-10.2,19.3-6.8l19.3,9.3c7.1,3.4,10.2,12.3,6.8,19.3
			c-3.4,7.1-12.3,10.2-19.3,6.8l-19.3-9.3C637.9,637.7,634.9,629.4,638.3,622.4z M680.2,642.4c2.5-5.2,0.2-11.8-5-14.3l-19.3-9.3
			c-5.2-2.5-11.8-0.2-14.3,5c-2.5,5.2-0.2,11.4,5.2,14.3l19.3,9.1C671.3,650.1,677.7,647.7,680.2,642.4z"/>
	</g>
	<g>
		<path fill="#F47E67" d="M666.3,632l3.9-8.2c0.5-0.9,1.6-1.4,2.5-0.9c0.9,0.5,1.4,1.6,0.9,2.5l-3.9,8.2c-0.5,0.9-1.6,1.4-2.5,0.9
			C666.1,634,665.8,632.9,666.3,632z"/>
	</g>
	<g>
		<path fill="#F47E67" d="M660.8,629.4l3.9-8.2c0.5-0.9,1.6-1.4,2.5-0.9c0.9,0.5,1.4,1.6,0.9,2.5l-3.9,8.2c-0.5,0.9-1.6,1.4-2.5,0.9
			C660.8,631.3,660.2,630.2,660.8,629.4z"/>
	</g>
	<g>
		<path fill="#F47E67" d="M654.9,626.5l3.9-8.2c0.5-0.9,1.6-1.4,2.5-0.9c0.9,0.5,1.4,1.6,0.9,2.5l-3.9,8.2c-0.5,0.9-1.6,1.4-2.5,0.9
			C654.9,628.6,654.3,627.4,654.9,626.5z"/>
	</g>
	<g>
		<path fill="#F47E67" d="M659.5,646.1l2-4.1c0.5-0.9,1.6-1.4,2.5-0.9c0.9,0.5,1.4,1.6,0.9,2.5l-2,4.1c-0.5,0.9-1.6,1.4-2.5,0.9
			C659.5,648.1,659,647,659.5,646.1z"/>
	</g>
	<g>
		<path fill="#F47E67" d="M654,643.5l2-4.1c0.5-0.9,1.6-1.4,2.5-0.9c0.9,0.5,1.4,1.6,0.9,2.5l-2,4.1c-0.5,0.9-1.6,1.4-2.5,0.9
			C654,645.6,653.6,644.4,654,643.5z"/>
	</g>
	<g>
		<path fill="#F47E67" d="M648.1,640.6l2-4.1c0.5-0.9,1.6-1.4,2.5-0.9s1.4,1.6,0.9,2.5l-2,4.1c-0.5,0.9-1.6,1.4-2.5,0.9
			C648.1,642.7,647.7,641.7,648.1,640.6z"/>
	</g>
	<g>
		<path fill="#FFFFFF" d="M520.6,587l16.1-33.8l0,0c5.9,2.9,8.2,9.5,5.4,15.4l-6.3,13C533.1,587,526.3,589.7,520.6,587L520.6,587z"
			/>
		<path fill="#F47E67" d="M517.9,587.9l17.7-37.3l1.8,0.9c6.8,3.2,9.5,11.1,6.3,17.9l-6.3,13c-3.2,6.6-11.3,9.5-17.9,6.3
			L517.9,587.9z M537.4,556l-14.3,30c4.3,1.1,8.9-1.1,10.9-5.2l6.3-13C542.4,563.3,541.1,558.6,537.4,556z"/>
	</g>
</g>
<g opacity="0.3">
	<g>
		<path fill="#F47E67" d="M267.4,704.9l-53.6-21l14.4-36.6l20.1,7.8l-6.7,17.2l15.8,6.1c9.8,3.8,14.6,14.8,10.8,24.6L267.4,704.9z
			 M218.6,681.9l46.6,18.2c2-7.3-2-15.2-9.2-18.1l-19.2-7.5l6.7-17.2l-13.3-5.3L218.6,681.9z"/>
	</g>
	<g>
		<path fill="#F47E67" d="M267.4,704.9l-19.3-7.6l7.6-19.3l1.7,0.6c9.8,3.8,14.6,14.8,10.8,24.6L267.4,704.9z M252.9,695.3l12.5,4.9
			c1.7-6.8-1.3-13.9-7.6-17.2L252.9,695.3z"/>
	</g>
	<g>
		<path fill="#F47E67" d="M240.7,670.1l-5.5-2.2c-1-0.4-1.5-1.5-1-2.3c0.4-1,1.5-1.5,2.3-1l5.5,2.2c1,0.4,1.5,1.5,1,2.3
			C242.6,669.9,241.5,670.4,240.7,670.1z"/>
	</g>
	<g>
		<path fill="#F47E67" d="M242.6,664.9l-5.5-2.2c-1-0.4-1.5-1.5-1-2.3c0.4-1,1.5-1.5,2.3-1l5.5,2.2c1,0.4,1.5,1.5,1,2.3
			C244.7,664.8,243.6,665.3,242.6,664.9z"/>
	</g>
	<g>
		<path fill="#F47E67" d="M251.3,665.1l-7.6-2.9c-1-0.4-1.5-1.5-1-2.3c0.4-1,1.5-1.5,2.3-1l7.6,2.9c0.7,0.2,1.5-0.1,1.8-0.7l0.1-0.4
			c0.2-0.7-0.1-1.5-0.7-1.8c-2.6-1-3.9-3.9-2.8-6.5l0.2-0.6c0.4-1,1.5-1.5,2.3-1s1.5,1.5,1,2.3l-0.2,0.6c-0.2,0.7,0.1,1.5,0.7,1.8
			c2.6,1,3.9,3.9,2.8,6.5l-0.1,0.4C256.8,664.8,253.9,666,251.3,665.1z"/>
	</g>
	<g>
		<path fill="#F47E67" d="M217.4,666.5c-1-0.4-1.5-1.5-1-2.3l0.2-0.6c0.2-0.7-0.1-1.5-0.7-1.8c-2.6-1-3.9-3.9-2.8-6.5l0.1-0.4
			c1-2.6,3.9-3.9,6.5-2.8l13.3,5.3c1,0.4,1.5,1.5,1,2.3c-0.5,0.9-1.5,1.5-2.3,1l-13.3-5.3c-0.7-0.2-1.5,0.1-1.8,0.7l-0.1,0.4
			c-0.2,0.7,0.1,1.5,0.7,1.8c2.6,1,3.9,3.9,2.8,6.5l-0.2,0.6C219.4,666.4,218.4,666.9,217.4,666.5z"/>
	</g>
	<g>
		<path fill="#F47E67" d="M267.3,713l-58.6-22.9l4.2-10.5l58.6,23L267.3,713z M213.5,688l51.7,20.3l1.5-3.7L215,684.4L213.5,688z"/>
	</g>
</g>
</svg>
