<?xml version="1.0" encoding="utf-8"?>
<!-- Generator: Adobe Illustrator 18.1.0, SVG Export Plug-In . SVG Version: 6.00 Build 0)  -->
<svg version="1.1" id="Calque_1" xmlns="http://www.w3.org/2000/svg" xmlns:xlink="http://www.w3.org/1999/xlink" x="0px" y="0px"
	 viewBox="-434 655.3 24 24" enable-background="new -434 655.3 24 24" xml:space="preserve">
<path fill="#5F6970" d="M-422,655.3c0.8,0,1.5,0.3,2.1,0.9s0.9,1.3,0.9,2.1v0.5c0.2,0.1,0.5,0.2,0.9,0.4l0.4-0.4
	c0.6-0.6,1.3-0.9,2.1-0.9c0.8,0,1.5,0.3,2.1,0.9c0.6,0.6,0.9,1.3,0.9,2.1c0,0.8-0.3,1.5-0.9,2.1l-0.4,0.4c0.2,0.3,0.3,0.6,0.4,0.9
	h0.5c0.8,0,1.5,0.3,2.1,0.9s0.9,1.3,0.9,2.1c0,0.8-0.3,1.5-0.9,2.1s-1.3,0.9-2.1,0.9h-0.5c-0.1,0.2-0.2,0.5-0.4,0.9l0.4,0.4
	c0.6,0.6,0.9,1.3,0.9,2.1c0,0.8-0.3,1.5-0.9,2.1c-0.6,0.6-1.3,0.9-2.1,0.9c-0.8,0-1.5-0.3-2.1-0.9l-0.4-0.4
	c-0.3,0.2-0.6,0.3-0.9,0.4v0.5c0,0.8-0.3,1.5-0.9,2.1s-1.3,0.9-2.1,0.9s-1.5-0.3-2.1-0.9s-0.9-1.3-0.9-2.1v-0.5
	c-0.2-0.1-0.5-0.2-0.9-0.4l-0.4,0.4c-0.6,0.6-1.3,0.9-2.1,0.9c-0.8,0-1.5-0.3-2.1-0.9c-0.6-0.6-0.9-1.3-0.9-2.1
	c0-0.8,0.3-1.5,0.9-2.1l0.4-0.4c-0.2-0.3-0.3-0.6-0.4-0.9h-0.5c-0.8,0-1.5-0.3-2.1-0.9s-0.9-1.3-0.9-2.1c0-0.8,0.3-1.5,0.9-2.1
	s1.3-0.9,2.1-0.9h0.5c0.1-0.2,0.2-0.5,0.4-0.9l-0.4-0.4c-0.6-0.6-0.9-1.3-0.9-2.1c0-0.8,0.3-1.5,0.9-2.1c0.6-0.6,1.3-0.9,2.1-0.9
	c0.8,0,1.5,0.3,2.1,0.9l0.4,0.4c0.3-0.2,0.6-0.3,0.9-0.4v-0.5c0-0.8,0.3-1.5,0.9-2.1S-422.8,655.3-422,655.3z M-422,657.3
	c-0.3,0-0.5,0.1-0.7,0.3s-0.3,0.4-0.3,0.7v2.1c-1.2,0.2-2.2,0.6-3.2,1.3l-1.5-1.5c-0.2-0.2-0.4-0.3-0.7-0.3c-0.3,0-0.5,0.1-0.7,0.3
	c-0.2,0.2-0.3,0.4-0.3,0.7c0,0.3,0.1,0.5,0.3,0.7l1.5,1.5c-0.7,1-1.2,2-1.3,3.2h-2.1c-0.3,0-0.5,0.1-0.7,0.3
	c-0.2,0.2-0.3,0.4-0.3,0.7s0.1,0.5,0.3,0.7c0.2,0.2,0.4,0.3,0.7,0.3h2.1c0.2,1.2,0.6,2.2,1.3,3.2l-1.5,1.5c-0.2,0.2-0.3,0.4-0.3,0.7
	c0,0.3,0.1,0.5,0.3,0.7c0.2,0.2,0.4,0.3,0.7,0.3c0.3,0,0.5-0.1,0.7-0.3l1.5-1.5c1,0.7,2,1.2,3.2,1.3v2.1c0,0.3,0.1,0.5,0.3,0.7
	c0.2,0.2,0.4,0.3,0.7,0.3s0.5-0.1,0.7-0.3c0.2-0.2,0.3-0.4,0.3-0.7v-2.1c1.2-0.2,2.2-0.6,3.2-1.3l1.5,1.5c0.2,0.2,0.4,0.3,0.7,0.3
	s0.5-0.1,0.7-0.3c0.2-0.2,0.3-0.4,0.3-0.7s-0.1-0.5-0.3-0.7l-1.5-1.5c0.7-1,1.2-2,1.3-3.2h2.1c0.3,0,0.5-0.1,0.7-0.3
	c0.2-0.2,0.3-0.4,0.3-0.7s-0.1-0.5-0.3-0.7c-0.2-0.2-0.4-0.3-0.7-0.3h-2.1c-0.2-1.2-0.6-2.2-1.3-3.2l1.5-1.5
	c0.2-0.2,0.3-0.4,0.3-0.7s-0.1-0.5-0.3-0.7c-0.2-0.2-0.4-0.3-0.7-0.3s-0.5,0.1-0.7,0.3l-1.5,1.5c-1-0.7-2-1.2-3.2-1.3v-2.1
	c0-0.3-0.1-0.5-0.3-0.7S-421.7,657.3-422,657.3z M-422,663.3c1.1,0,2,0.4,2.8,1.2c0.8,0.8,1.2,1.7,1.2,2.8c0,1.1-0.4,2-1.2,2.8
	c-0.8,0.8-1.7,1.2-2.8,1.2s-2-0.4-2.8-1.2c-0.8-0.8-1.2-1.7-1.2-2.8c0-1.1,0.4-2,1.2-2.8C-424,663.7-423.1,663.3-422,663.3z
	 M-422,665.3c-0.6,0-1,0.2-1.4,0.6c-0.4,0.4-0.6,0.9-0.6,1.4c0,0.6,0.2,1,0.6,1.4c0.4,0.4,0.9,0.6,1.4,0.6s1-0.2,1.4-0.6
	c0.4-0.4,0.6-0.9,0.6-1.4c0-0.6-0.2-1-0.6-1.4C-421,665.5-421.4,665.3-422,665.3z"/>
</svg>
