<?xml version="1.0" encoding="utf-8"?>
<!-- Generator: Adobe Illustrator 19.1.0, SVG Export Plug-In . SVG Version: 6.00 Build 0)  -->
<svg version="1.1" id="Layer_1" xmlns="http://www.w3.org/2000/svg" xmlns:xlink="http://www.w3.org/1999/xlink" x="0px" y="0px"
	 viewBox="0 0 1127.8 206.8" style="enable-background:new 0 0 1127.8 206.8;" xml:space="preserve">
<style type="text/css">
	.st0{fill:url(#SVGID_1_);}
	.st1{fill:url(#SVGID_2_);}
	.st2{fill:url(#SVGID_3_);}
	.st3{fill:url(#SVGID_4_);}
	.st4{fill:url(#SVGID_5_);}
	.st5{fill:url(#SVGID_6_);}
	.st6{fill:url(#SVGID_7_);}
	.st7{fill:url(#SVGID_8_);}
	.st8{fill:url(#SVGID_9_);}
	.st9{fill:url(#SVGID_10_);}
	.st10{fill:url(#SVGID_11_);}
	.st11{fill:url(#SVGID_12_);}
	.st12{fill:url(#SVGID_13_);}
	.st13{fill:#F47D67;}
</style>
<g>
	<g>
		<linearGradient id="SVGID_1_" gradientUnits="userSpaceOnUse" x1="822.551" y1="82.0145" x2="854.551" y2="82.0145">
			<stop  offset="0" style="stop-color:#555D65"/>
			<stop  offset="1" style="stop-color:#3F454C"/>
		</linearGradient>
		<path class="st0" d="M838.6,140.7c-8.8,0-16-7.2-16-16V39.4c0-8.8,7.2-16,16-16s16,7.2,16,16v85.3
			C854.6,133.5,847.4,140.7,838.6,140.7z"/>
	</g>
	<g>
		<g>
			
				<linearGradient id="SVGID_2_" gradientUnits="userSpaceOnUse" x1="762.3436" y1="-322.0331" x2="794.3436" y2="-322.0331" gradientTransform="matrix(4.489659e-11 1 -1 4.489659e-11 616.1097 -738.9863)">
				<stop  offset="0" style="stop-color:#555D65"/>
				<stop  offset="1" style="stop-color:#3F454C"/>
			</linearGradient>
			<path class="st1" d="M952.8,55.4h-29.3c-8.8,0-16-7.2-16-16s7.2-16,16-16h29.3c8.8,0,16,7.2,16,16S961.6,55.4,952.8,55.4z"/>
		</g>
		<g>
			<linearGradient id="SVGID_3_" gradientUnits="userSpaceOnUse" x1="878.1428" y1="82.0145" x2="939.4758" y2="82.0145">
				<stop  offset="0" style="stop-color:#555D65"/>
				<stop  offset="1" style="stop-color:#3F454C"/>
			</linearGradient>
			<path class="st2" d="M923.5,140.7c-8.8,0-16-7.2-16-16V55.4h-13.3c-8.8,0-16-7.2-16-16s7.2-16,16-16h45.3v101.3
				C939.5,133.5,932.3,140.7,923.5,140.7z"/>
		</g>
	</g>
	<g>
		<linearGradient id="SVGID_4_" gradientUnits="userSpaceOnUse" x1="156.1037" y1="82.0145" x2="273.4182" y2="82.0145">
			<stop  offset="0" style="stop-color:#555D65"/>
			<stop  offset="1" style="stop-color:#3F454C"/>
		</linearGradient>
		<path class="st3" d="M214.8,140.7c-32.3,0-58.7-26.3-58.7-58.7s26.3-58.7,58.7-58.7s58.7,26.3,58.7,58.7S247.1,140.7,214.8,140.7z
			 M214.8,55.4c-14.7,0-26.7,12-26.7,26.7s12,26.7,26.7,26.7s26.7-12,26.7-26.7S229.5,55.4,214.8,55.4z"/>
	</g>
	<g>
		<g>
			<linearGradient id="SVGID_5_" gradientUnits="userSpaceOnUse" x1="291.0954" y1="82.0145" x2="394.4284" y2="82.0145">
				<stop  offset="0" style="stop-color:#555D65"/>
				<stop  offset="1" style="stop-color:#3F454C"/>
			</linearGradient>
			<path class="st4" d="M378.4,140.7c-8.8,0-16-7.2-16-16V75c0-10.8-8.8-19.7-19.7-19.7s-19.7,8.8-19.7,19.7v49.6
				c0,8.8-7.2,16-16,16s-16-7.2-16-16V75c0-28.5,23.2-51.7,51.7-51.7s51.7,23.2,51.7,51.7v49.6C394.4,133.5,387.3,140.7,378.4,140.7
				z"/>
		</g>
		<g>
			<linearGradient id="SVGID_6_" gradientUnits="userSpaceOnUse" x1="362.4284" y1="82.0145" x2="465.7619" y2="82.0145">
				<stop  offset="0" style="stop-color:#555D65"/>
				<stop  offset="1" style="stop-color:#3F454C"/>
			</linearGradient>
			<path class="st5" d="M449.8,140.7c-8.8,0-16-7.2-16-16V75c0-10.8-8.8-19.7-19.7-19.7s-19.7,8.8-19.7,19.7v49.6
				c0,8.8-7.2,16-16,16s-16-7.2-16-16V75c0-28.5,23.2-51.7,51.7-51.7c28.5,0,51.7,23.2,51.7,51.7v49.6
				C465.8,133.5,458.6,140.7,449.8,140.7z"/>
		</g>
		<g>
			<linearGradient id="SVGID_7_" gradientUnits="userSpaceOnUse" x1="433.7619" y1="82.0145" x2="537.0954" y2="82.0145">
				<stop  offset="0" style="stop-color:#555D65"/>
				<stop  offset="1" style="stop-color:#3F454C"/>
			</linearGradient>
			<path class="st6" d="M521.1,140.7c-8.8,0-16-7.2-16-16V75c0-10.8-8.8-19.7-19.7-19.7s-19.7,8.8-19.7,19.7v49.6
				c0,8.8-7.2,16-16,16s-16-7.2-16-16V75c0-28.5,23.2-51.7,51.7-51.7c28.5,0,51.7,23.2,51.7,51.7v49.6
				C537.1,133.5,529.9,140.7,521.1,140.7z"/>
		</g>
	</g>
	<g>
		<g>
			<linearGradient id="SVGID_8_" gradientUnits="userSpaceOnUse" x1="690.6701" y1="82.0145" x2="722.6701" y2="82.0145">
				<stop  offset="0" style="stop-color:#555C65"/>
				<stop  offset="3.275092e-02" style="stop-color:#555D65"/>
				<stop  offset="1" style="stop-color:#3F454C"/>
			</linearGradient>
			<path class="st7" d="M706.7,140.7c-8.8,0-16-7.2-16-16V39.4c0-8.8,7.2-16,16-16s16,7.2,16,16v85.3
				C722.7,133.5,715.5,140.7,706.7,140.7z"/>
		</g>
		<g>
			<linearGradient id="SVGID_9_" gradientUnits="userSpaceOnUse" x1="690.6701" y1="82.0145" x2="794.0036" y2="82.0145">
				<stop  offset="0" style="stop-color:#555D65"/>
				<stop  offset="1" style="stop-color:#3F454C"/>
			</linearGradient>
			<path class="st8" d="M778,140.7c-8.8,0-16-7.2-16-16V75c0-10.8-8.8-19.7-19.7-19.7s-19.7,8.8-19.7,19.7v49.6c0,8.8-7.2,16-16,16
				s-16-7.2-16-16V75c0-28.5,23.2-51.7,51.7-51.7c28.5,0,51.7,23.2,51.7,51.7v49.6C794,133.5,786.8,140.7,778,140.7z"/>
		</g>
	</g>
	<g>
		
			<linearGradient id="SVGID_10_" gradientUnits="userSpaceOnUse" x1="86.6941" y1="-206.5491" x2="190.0271" y2="-206.5491" gradientTransform="matrix(-1 0 0 -1 751.3945 -122.8766)">
			<stop  offset="0" style="stop-color:#555D65"/>
			<stop  offset="1" style="stop-color:#3F454C"/>
		</linearGradient>
		<path class="st9" d="M613,142.3c-28.5,0-51.7-23.2-51.7-51.7V41c0-8.8,7.2-16,16-16s16,7.2,16,16v49.6c0,10.8,8.8,19.7,19.7,19.7
			s19.7-8.8,19.7-19.7V41c0-8.8,7.2-16,16-16s16,7.2,16,16v49.6C664.7,119.2,641.5,142.3,613,142.3z"/>
	</g>
	<g>
		<g>
			<linearGradient id="SVGID_11_" gradientUnits="userSpaceOnUse" x1="1047.2249" y1="183.8573" x2="1047.2249" y2="139.8459">
				<stop  offset="0" style="stop-color:#555C65"/>
				<stop  offset="3.275092e-02" style="stop-color:#555D65"/>
				<stop  offset="1" style="stop-color:#3F454C"/>
			</linearGradient>
			<path class="st10" d="M1047.2,183.5c-8.8,0-16-7.2-16-16v-42.8c0-8.8,7.2-16,16-16s16,7.2,16,16v42.8
				C1063.2,176.3,1056.1,183.5,1047.2,183.5z"/>
		</g>
		<g>
			
				<linearGradient id="SVGID_12_" gradientUnits="userSpaceOnUse" x1="-347.4973" y1="-204.8911" x2="-244.1633" y2="-204.8911" gradientTransform="matrix(-1 0 0 -1 751.3945 -122.8766)">
				<stop  offset="0" style="stop-color:#555D65"/>
				<stop  offset="1" style="stop-color:#3F454C"/>
			</linearGradient>
			<path class="st11" d="M1047.2,140.7c-28.5,0-51.7-23.2-51.7-51.7V39.4c0-8.8,7.2-16,16-16s16,7.2,16,16V89
				c0,10.8,8.8,19.7,19.7,19.7s19.7-8.8,19.7-19.7V39.4c0-8.8,7.2-16,16-16s16,7.2,16,16V89C1098.9,117.5,1075.7,140.7,1047.2,140.7
				z"/>
		</g>
	</g>
	<g>
		<linearGradient id="SVGID_13_" gradientUnits="userSpaceOnUse" x1="28.8709" y1="78.3573" x2="138.8709" y2="78.3573">
			<stop  offset="0" style="stop-color:#F47D67"/>
			<stop  offset="1" style="stop-color:#D16C59"/>
		</linearGradient>
		<path class="st12" d="M83.9,133.4h26.8v-30H83.9c-13.8,0-25-11.2-25-25s11.2-25,25-25h40c8.3,0,15-6.7,15-15s-6.7-15-15-15h-40
			c-30.3,0-55,24.7-55,55S53.5,133.4,83.9,133.4z"/>
		<g>
			<path class="st13" d="M97.6,87.6l39,22.5c6.6,3.8,6.6,13.3,0,17.1l-39,22.5c-3.5,2-7.9-0.5-7.9-4.6V92.1
				C89.6,88.1,94,85.5,97.6,87.6z"/>
		</g>
	</g>
</g>
</svg>
