<?xml version="1.0" encoding="utf-8"?>
<!-- Generator: Adobe Illustrator 19.1.0, SVG Export Plug-In . SVG Version: 6.00 Build 0)  -->
<svg version="1.1" id="Layer_1" xmlns="http://www.w3.org/2000/svg" xmlns:xlink="http://www.w3.org/1999/xlink" x="0px" y="0px"
	 viewBox="0 0 153.7 52.7" style="enable-background:new 0 0 153.7 52.7;" xml:space="preserve">
<style type="text/css">
	.st0{fill:url(#SVGID_1_);}
	.st1{fill:#F37D67;}
	.st2{fill:url(#SVGID_2_);}
	.st3{fill:url(#SVGID_3_);}
	.st4{fill:url(#SVGID_4_);}
	.st5{fill:url(#SVGID_5_);}
	.st6{fill:url(#SVGID_6_);}
	.st7{fill:url(#SVGID_7_);}
	.st8{fill:url(#SVGID_8_);}
	.st9{fill:url(#SVGID_9_);}
	.st10{fill:url(#SVGID_10_);}
	.st11{fill:url(#SVGID_11_);}
</style>
<g>
	<linearGradient id="SVGID_1_" gradientUnits="userSpaceOnUse" x1="52.4783" y1="26.568" x2="77.5644" y2="26.568">
		<stop  offset="0" style="stop-color:#F37D67"/>
		<stop  offset="1" style="stop-color:#D16C59"/>
	</linearGradient>
	<path class="st0" d="M65,39.1h6.1v-6.8H65c-3.1,0-5.7-2.6-5.7-5.7s2.6-5.7,5.7-5.7h9.1c1.9,0,3.4-1.5,3.4-3.4S76,14,74.1,14H65
		c-6.9,0-12.5,5.6-12.5,12.5S58.1,39.1,65,39.1z"/>
	<g>
		<path class="st1" d="M68.1,28.7l8.9,5.1c1.5,0.9,1.5,3,0,3.9l-8.9,5.1c-0.8,0.5-1.8-0.1-1.8-1V29.7C66.3,28.8,67.3,28.2,68.1,28.7
			z"/>
	</g>
	
		<linearGradient id="SVGID_2_" gradientUnits="userSpaceOnUse" x1="-15.0652" y1="609.8974" x2="10.021" y2="609.8974" gradientTransform="matrix(-1 0 0 -1 92.8625 636.4654)">
		<stop  offset="0" style="stop-color:#F37D67"/>
		<stop  offset="1" style="stop-color:#D16C59"/>
	</linearGradient>
	<path class="st2" d="M95.4,14h-6.1v6.8h6.1c3.1,0,5.7,2.6,5.7,5.7s-2.6,5.7-5.7,5.7h-9.1c-1.9,0-3.4,1.5-3.4,3.4
		c0,1.9,1.5,3.4,3.4,3.4h9.1c6.9,0,12.5-5.6,12.5-12.5S102.3,14,95.4,14z"/>
	<g>
		<path class="st1" d="M92.3,24.5l-8.9-5.1c-1.5-0.9-1.5-3,0-3.9l8.9-5.1c0.8-0.5,1.8,0.1,1.8,1v12.1C94.1,24.4,93.1,24.9,92.3,24.5
			z"/>
	</g>
	<g>
		<linearGradient id="SVGID_3_" gradientUnits="userSpaceOnUse" x1="18.2444" y1="17.4645" x2="25.0861" y2="17.4645">
			<stop  offset="0" style="stop-color:#4B525A"/>
			<stop  offset="3.275092e-02" style="stop-color:#555D66"/>
			<stop  offset="1" style="stop-color:#3E454D"/>
		</linearGradient>
		<path class="st3" d="M21.7,34.2c-1.9,0-3.4-1.5-3.4-3.4V4.1c0-1.9,1.5-3.4,3.4-3.4s3.4,1.5,3.4,3.4v26.7
			C25.1,32.7,23.6,34.2,21.7,34.2z"/>
	</g>
	<linearGradient id="SVGID_4_" gradientUnits="userSpaceOnUse" x1="147.7265" y1="23.8391" x2="148.0306" y2="3.6181">
		<stop  offset="0" style="stop-color:#555D66"/>
		<stop  offset="1" style="stop-color:#3E454D"/>
	</linearGradient>
	<path class="st4" d="M150.3,31.7c-0.9,0-1.6-0.7-1.6-1.6V23v-6.2V3.4c0-1.9-1.5-3.4-3.4-3.4c-1.9,0-3.4,1.5-3.4,3.4v13.5V23v7.1
		c0,4.6,3.8,8.4,8.4,8.4c1.9,0,3.4-1.5,3.4-3.4C153.7,33.2,152.2,31.7,150.3,31.7z"/>
	<g>
		<linearGradient id="SVGID_5_" gradientUnits="userSpaceOnUse" x1="33.9367" y1="23.7771" x2="33.9367" y2="15.8712">
			<stop  offset="0" style="stop-color:#545C65"/>
			<stop  offset="3.275092e-02" style="stop-color:#555D66"/>
			<stop  offset="1" style="stop-color:#3E454D"/>
		</linearGradient>
		<path class="st5" d="M33.9,39.2c-1.9,0-3.4-1.5-3.4-3.4V17.6c0-1.9,1.5-3.4,3.4-3.4c1.9,0,3.4,1.5,3.4,3.4v18.2
			C37.4,37.7,35.8,39.2,33.9,39.2z"/>
	</g>
	<g>
		<linearGradient id="SVGID_6_" gradientUnits="userSpaceOnUse" x1="34.0375" y1="23.5265" x2="46.8086" y2="15.4686">
			<stop  offset="0" style="stop-color:#545C65"/>
			<stop  offset="3.275092e-02" style="stop-color:#555D66"/>
			<stop  offset="1" style="stop-color:#3E454D"/>
		</linearGradient>
		<path class="st6" d="M33.9,27.1c-0.7,0-1.5-0.2-2.1-0.7c-1.5-1.2-1.8-3.3-0.6-4.8c0.2-0.3,5.9-7.5,13.9-7.5c1.9,0,3.4,1.5,3.4,3.4
			S47,21,45.1,21c-4.6,0-8.4,4.8-8.5,4.8C36,26.7,35,27.1,33.9,27.1z"/>
	</g>
	<linearGradient id="SVGID_7_" gradientUnits="userSpaceOnUse" x1="7.4206" y1="36.8308" x2="22.0162" y2="12.2007">
		<stop  offset="0.6723" style="stop-color:#555D66"/>
		<stop  offset="1" style="stop-color:#3E454D"/>
	</linearGradient>
	<path class="st7" d="M18.2,30.8c0,0.9-0.7,1.6-1.6,1.6h-4.1c-3.1,0-5.7-2.6-5.7-5.7S9.4,21,12.5,21h3.7h2v-6.8h-5.7
		C5.6,14.1,0,19.8,0,26.7s5.6,12.5,12.5,12.5h4.1c4.6,0,8.4-3.8,8.4-8.4v-2.3h-6.8V30.8z"/>
	<g>
		<linearGradient id="SVGID_8_" gradientUnits="userSpaceOnUse" x1="21.6653" y1="16.9354" x2="21.6653" y2="7.3571">
			<stop  offset="0" style="stop-color:#555D66"/>
			<stop  offset="1" style="stop-color:#3E454D"/>
		</linearGradient>
		<path class="st8" d="M21.7,34.2c-1.9,0-3.4-1.5-3.4-3.4V4.1c0-1.9,1.5-3.4,3.4-3.4s3.4,1.5,3.4,3.4v26.7
			C25.1,32.7,23.6,34.2,21.7,34.2z"/>
	</g>
	<g>
		
			<linearGradient id="SVGID_9_" gradientUnits="userSpaceOnUse" x1="-4953.916" y1="525.5438" x2="-4947.0742" y2="525.5438" gradientTransform="matrix(-1 0 0 -1 -4835.0229 561.4443)">
			<stop  offset="0" style="stop-color:#4B525A"/>
			<stop  offset="3.275092e-02" style="stop-color:#555D66"/>
			<stop  offset="1" style="stop-color:#3E454D"/>
		</linearGradient>
		<path class="st9" d="M115.5,19.1c1.9,0,3.4,1.5,3.4,3.4v26.7c0,1.9-1.5,3.4-3.4,3.4s-3.4-1.5-3.4-3.4V22.5
			C112.1,20.7,113.6,19.1,115.5,19.1z"/>
	</g>
	<linearGradient id="SVGID_10_" gradientUnits="userSpaceOnUse" x1="130.5672" y1="32.4981" x2="119.0124" y2="22.0075">
		<stop  offset="0.6723" style="stop-color:#555D66"/>
		<stop  offset="1" style="stop-color:#3E454D"/>
	</linearGradient>
	<path class="st10" d="M118.9,22.5c0-0.9,0.7-1.6,1.6-1.6h4.1c3.1,0,5.7,2.6,5.7,5.7s-2.6,5.7-5.7,5.7h-3.7h-2v6.8h5.7
		c6.9,0,12.5-5.6,12.5-12.5s-5.6-12.5-12.5-12.5h-4.1c-4.6,0-8.4,3.8-8.4,8.4v2.3h6.8V22.5z"/>
	<g>
		
			<linearGradient id="SVGID_11_" gradientUnits="userSpaceOnUse" x1="-4950.4951" y1="561.7317" x2="-4950.4951" y2="541.0547" gradientTransform="matrix(-1 0 0 -1 -4835.0229 561.4443)">
			<stop  offset="0" style="stop-color:#555D66"/>
			<stop  offset="1" style="stop-color:#3E454D"/>
		</linearGradient>
		<path class="st11" d="M115.5,19.1c1.9,0,3.4,1.5,3.4,3.4v26.7c0,1.9-1.5,3.4-3.4,3.4s-3.4-1.5-3.4-3.4V22.5
			C112.1,20.7,113.6,19.1,115.5,19.1z"/>
	</g>
</g>
</svg>
