<?xml version="1.0" encoding="utf-8"?>
<!-- Generator: Adobe Illustrator 19.1.0, SVG Export Plug-In . SVG Version: 6.00 Build 0)  -->
<svg version="1.1" id="Layer_1" xmlns="http://www.w3.org/2000/svg" xmlns:xlink="http://www.w3.org/1999/xlink" x="0px" y="0px"
	 viewBox="0 0 612 294.1" style="enable-background:new 0 0 612 294.1;" xml:space="preserve">
<style type="text/css">
	.st0{fill:none;stroke:#E8E8EA;stroke-miterlimit:10;}
</style>
<path class="st0" d="M87.4,63.4L87.4,63.4c0-3.4,2.8-6.2,6.2-6.2h4.6c3.4,0,6.2-2.8,6.2-6.2v0c0-3.4-2.8-6.2-6.2-6.2H28.7
	c-3.4,0-6.2,2.8-6.2,6.2v0c0,3.4,2.8,6.2,6.2,6.2h20.4c3.4,0,6.2,2.8,6.2,6.2v0c0,3.4-2.8,6.2-6.2,6.2h-2.4c-3.4,0-6.2,2.8-6.2,6.2
	v0c0,3.4,2.8,6.2,6.2,6.2h67.1c3.4,0,6.2-2.8,6.2-6.2v0c0-3.4-2.8-6.2-6.2-6.2H93.6C90.2,69.6,87.4,66.8,87.4,63.4z"/>
<path class="st0" d="M479,70.3L479,70.3c0,6.5,5.3,11.8,11.8,11.8h36.8c6.5,0,11.8,5.3,11.8,11.8v0c0,6.5,5.3,11.8,11.8,11.8h46.5
	c6.5,0,11.8-5.3,11.8-11.8v0c0-6.5,5.3-11.8,11.8-11.8h1c6.5,0,11.8-5.3,11.8-11.8v0c0-6.5-5.3-11.8-11.8-11.8H490.7
	C484.2,58.5,479,63.8,479,70.3z"/>
<path class="st0" d="M174.9,147h-41c-2.9,0-5.3-2.4-5.3-5.3v0c0-2.9,2.4-5.3,5.3-5.3h41c2.9,0,5.3,2.4,5.3,5.3v0
	C180.2,144.7,177.8,147,174.9,147z"/>
<path class="st0" d="M193.5,147L193.5,147c-2.8,0-5.1-2.3-5.1-5.1v-0.4c0-2.8,2.3-5.1,5.1-5.1h0c2.8,0,5.1,2.3,5.1,5.1v0.4
	C198.6,144.7,196.3,147,193.5,147z"/>
<path class="st0" d="M491.4,204.9L491.4,204.9c0-3.4-2.8-6.2-6.2-6.2h-4.6c-3.4,0-6.2-2.8-6.2-6.2v0c0-3.4,2.8-6.2,6.2-6.2h69.6
	c3.4,0,6.2,2.8,6.2,6.2v0c0,3.4-2.8,6.2-6.2,6.2h-20.4c-3.4,0-6.2,2.8-6.2,6.2v0c0,3.4,2.8,6.2,6.2,6.2h2.4c3.4,0,6.2,2.8,6.2,6.2v0
	c0,3.4-2.8,6.2-6.2,6.2l-67.1,0c-3.4,0-6.2-2.8-6.2-6.2v0c0-3.4,2.8-6.2,6.2-6.2h20.2C488.6,211.1,491.4,208.4,491.4,204.9z"/>
<path class="st0" d="M408.6,50h-41c-2.9,0-5.3-2.4-5.3-5.3v0c0-2.9,2.4-5.3,5.3-5.3h41c2.9,0,5.3,2.4,5.3,5.3v0
	C414,47.6,411.6,50,408.6,50z"/>
</svg>
