<?xml version="1.0" encoding="UTF-8" standalone="no"?>
<!-- Generator: Adobe Illustrator 19.1.0, SVG Export Plug-In . SVG Version: 6.00 Build 0)  -->
<svg id="Layer_1" style="enable-background:new 0 0 153.7 52.7" xmlns="http://www.w3.org/2000/svg" xml:space="preserve" viewBox="0 0 153.7 52.7" version="1.1" y="0px" x="0px" xmlns:xlink="http://www.w3.org/1999/xlink">
<style type="text/css">
	.st0{fill:url(#SVGID_1_);}
	.st1{fill:#F37D67;}
	.st2{fill:url(#SVGID_2_);}
	.st3{fill:url(#SVGID_3_);}
	.st4{fill:url(#SVGID_4_);}
	.st5{fill:url(#SVGID_5_);}
	.st6{fill:url(#SVGID_6_);}
	.st7{fill:url(#SVGID_7_);}
	.st8{fill:url(#SVGID_8_);}
	.st9{fill:url(#SVGID_9_);}
	.st10{fill:url(#SVGID_10_);}
	.st11{fill:url(#SVGID_11_);}
</style>
	<linearGradient id="SVGID_1_" y2="26.568" gradientUnits="userSpaceOnUse" x2="77.564" y1="26.568" x1="52.478">
		<stop stop-color="#F37D67" offset="0"/>
		<stop stop-color="#D16C59" offset="1"/>
	</linearGradient>
	<path class="st0" d="m65 39.1h6.1v-6.8h-6.1c-3.1 0-5.7-2.6-5.7-5.7s2.6-5.7 5.7-5.7h9.1c1.9 0 3.4-1.5 3.4-3.4s-1.5-3.5-3.4-3.5h-9.1c-6.9 0-12.5 5.6-12.5 12.5s5.6 12.6 12.5 12.6z"/>
		<path class="st1" d="m68.1 28.7l8.9 5.1c1.5 0.9 1.5 3 0 3.9l-8.9 5.1c-0.8 0.5-1.8-0.1-1.8-1v-12.1c0-0.9 1-1.5 1.8-1z"/>
		<linearGradient id="SVGID_2_" y2="609.9" gradientUnits="userSpaceOnUse" x2="10.021" gradientTransform="matrix(-1 0 0 -1 92.862 636.47)" y1="609.9" x1="-15.065">
		<stop stop-color="#F37D67" offset="0"/>
		<stop stop-color="#D16C59" offset="1"/>
	</linearGradient>
	<path class="st2" d="m95.4 14h-6.1v6.8h6.1c3.1 0 5.7 2.6 5.7 5.7s-2.6 5.7-5.7 5.7h-9.1c-1.9 0-3.4 1.5-3.4 3.4s1.5 3.4 3.4 3.4h9.1c6.9 0 12.5-5.6 12.5-12.5s-5.6-12.5-12.5-12.5z"/>
		<path class="st1" d="m92.3 24.5l-8.9-5.1c-1.5-0.9-1.5-3 0-3.9l8.9-5.1c0.8-0.5 1.8 0.1 1.8 1v12.1c0 0.9-1 1.4-1.8 1z"/>
		<linearGradient id="SVGID_3_" y2="17.464" gradientUnits="userSpaceOnUse" x2="25.086" y1="17.464" x1="18.244">
			<stop stop-color="#4B525A" offset="0"/>
			<stop stop-color="#555D66" offset=".032751"/>
			<stop stop-color="#3E454D" offset="1"/>
		</linearGradient>
		<path class="st3" d="m21.7 34.2c-1.9 0-3.4-1.5-3.4-3.4v-26.7c0-1.9 1.5-3.4 3.4-3.4s3.4 1.5 3.4 3.4v26.7c0 1.9-1.5 3.4-3.4 3.4z"/>
	<linearGradient id="SVGID_4_" y2="3.6181" gradientUnits="userSpaceOnUse" x2="148.03" y1="23.839" x1="147.73">
		<stop stop-color="#555D66" offset="0"/>
		<stop stop-color="#3E454D" offset="1"/>
	</linearGradient>
	<path class="st4" d="m150.3 31.7c-0.9 0-1.6-0.7-1.6-1.6v-26.7c0-1.9-1.5-3.4-3.4-3.4s-3.4 1.5-3.4 3.4v26.7c0 4.6 3.8 8.4 8.4 8.4 1.9 0 3.4-1.5 3.4-3.4s-1.5-3.4-3.4-3.4z"/>
		<linearGradient id="SVGID_5_" y2="15.871" gradientUnits="userSpaceOnUse" x2="33.937" y1="23.777" x1="33.937">
			<stop stop-color="#545C65" offset="0"/>
			<stop stop-color="#555D66" offset=".032751"/>
			<stop stop-color="#3E454D" offset="1"/>
		</linearGradient>
		<path class="st5" d="m33.9 39.2c-1.9 0-3.4-1.5-3.4-3.4v-18.2c0-1.9 1.5-3.4 3.4-3.4s3.4 1.5 3.4 3.4v18.2c0.1 1.9-1.5 3.4-3.4 3.4z"/>
		<linearGradient id="SVGID_6_" y2="15.469" gradientUnits="userSpaceOnUse" x2="46.809" y1="23.526" x1="34.038">
			<stop stop-color="#545C65" offset="0"/>
			<stop stop-color="#555D66" offset=".032751"/>
			<stop stop-color="#3E454D" offset="1"/>
		</linearGradient>
		<path class="st6" d="m33.9 27.1c-0.7 0-1.5-0.2-2.1-0.7-1.5-1.2-1.8-3.3-0.6-4.8 0.2-0.3 5.9-7.5 13.9-7.5 1.9 0 3.4 1.5 3.4 3.4s-1.5 3.5-3.4 3.5c-4.6 0-8.4 4.8-8.5 4.8-0.6 0.9-1.6 1.3-2.7 1.3z"/>
	<linearGradient id="SVGID_7_" y2="12.201" gradientUnits="userSpaceOnUse" x2="22.016" y1="36.831" x1="7.4206">
		<stop stop-color="#555D66" offset=".6723"/>
		<stop stop-color="#3E454D" offset="1"/>
	</linearGradient>
	<path class="st7" d="m18.2 30.8c0 0.9-0.7 1.6-1.6 1.6h-4.1c-3.1 0-5.7-2.6-5.7-5.7s2.6-5.7 5.7-5.7h5.7v-6.8h-5.7c-6.9-0.1-12.5 5.6-12.5 12.5s5.6 12.5 12.5 12.5h4.1c4.6 0 8.4-3.8 8.4-8.4v-2.3h-6.8v2.3z"/>
		<linearGradient id="SVGID_8_" y2="7.3571" gradientUnits="userSpaceOnUse" x2="21.665" y1="16.935" x1="21.665">
			<stop stop-color="#555D66" offset="0"/>
			<stop stop-color="#3E454D" offset="1"/>
		</linearGradient>
		<path class="st8" d="m21.7 34.2c-1.9 0-3.4-1.5-3.4-3.4v-26.7c0-1.9 1.5-3.4 3.4-3.4s3.4 1.5 3.4 3.4v26.7c0 1.9-1.5 3.4-3.4 3.4z"/>
			<linearGradient id="SVGID_9_" y2="525.54" gradientUnits="userSpaceOnUse" x2="-4947.1" gradientTransform="matrix(-1 0 0 -1 -4835 561.44)" y1="525.54" x1="-4953.9">
			<stop stop-color="#4B525A" offset="0"/>
			<stop stop-color="#555D66" offset=".032751"/>
			<stop stop-color="#3E454D" offset="1"/>
		</linearGradient>
		<path class="st9" d="m115.5 19.1c1.9 0 3.4 1.5 3.4 3.4v26.7c0 1.9-1.5 3.4-3.4 3.4s-3.4-1.5-3.4-3.4v-26.7c0-1.8 1.5-3.4 3.4-3.4z"/>
	<linearGradient id="SVGID_10_" y2="22.008" gradientUnits="userSpaceOnUse" x2="119.01" y1="32.498" x1="130.57">
		<stop stop-color="#555D66" offset=".6723"/>
		<stop stop-color="#3E454D" offset="1"/>
	</linearGradient>
	<path class="st10" d="m118.9 22.5c0-0.9 0.7-1.6 1.6-1.6h4.1c3.1 0 5.7 2.6 5.7 5.7s-2.6 5.7-5.7 5.7h-5.7v6.8h5.7c6.9 0 12.5-5.6 12.5-12.5s-5.6-12.5-12.5-12.5h-4.1c-4.6 0-8.4 3.8-8.4 8.4v2.3h6.8v-2.3z"/>
			<linearGradient id="SVGID_11_" y2="541.05" gradientUnits="userSpaceOnUse" x2="-4950.5" gradientTransform="matrix(-1 0 0 -1 -4835 561.44)" y1="561.73" x1="-4950.5">
			<stop stop-color="#555D66" offset="0"/>
			<stop stop-color="#3E454D" offset="1"/>
		</linearGradient>
		<path class="st11" d="m115.5 19.1c1.9 0 3.4 1.5 3.4 3.4v26.7c0 1.9-1.5 3.4-3.4 3.4s-3.4-1.5-3.4-3.4v-26.7c0-1.8 1.5-3.4 3.4-3.4z"/>
</svg>
