<?xml version="1.0" encoding="utf-8"?>
<!-- Generator: Adobe Illustrator 19.2.0, SVG Export Plug-In . SVG Version: 6.00 Build 0)  -->
<svg version="1.1" id="Layer_1" xmlns="http://www.w3.org/2000/svg" xmlns:xlink="http://www.w3.org/1999/xlink" x="0px" y="0px"
	 viewBox="0 0 181.4 55.3" style="enable-background:new 0 0 181.4 55.3;" xml:space="preserve">
<style type="text/css">
	.st0{fill:url(#SVGID_1_);}
	.st1{fill:#F37D67;}
	.st2{fill:url(#SVGID_2_);}
	.st3{fill:url(#SVGID_3_);}
	.st4{fill:url(#SVGID_4_);}
	.st5{fill:url(#SVGID_5_);}
	.st6{fill:url(#SVGID_6_);}
	.st7{fill:url(#SVGID_7_);}
	.st8{fill:url(#SVGID_8_);}
	.st9{fill:url(#SVGID_9_);}
	.st10{fill:url(#SVGID_10_);}
	.st11{fill:url(#SVGID_11_);}
	.st12{fill:url(#SVGID_12_);}
	.st13{fill:#FFFFFF;}
	.st14{font-family:'Bariol-Bold';}
	.st15{font-size:5.5397px;}
</style>
<g>
	<linearGradient id="SVGID_1_" gradientUnits="userSpaceOnUse" x1="54.286" y1="27.8842" x2="79.3721" y2="27.8842">
		<stop  offset="0" style="stop-color:#F37D67"/>
		<stop  offset="1" style="stop-color:#D16C59"/>
	</linearGradient>
	<path class="st0" d="M66.8,40.4h6.1v-6.8h-6.1c-3.1,0-5.7-2.6-5.7-5.7s2.6-5.7,5.7-5.7H76c1.9,0,3.4-1.5,3.4-3.4s-1.5-3.4-3.4-3.4
		h-9.1c-6.9,0-12.5,5.6-12.5,12.5S59.9,40.4,66.8,40.4z"/>
	<g>
		<path class="st1" d="M70,30l8.9,5.1c1.5,0.9,1.5,3,0,3.9L70,44.1c-0.8,0.5-1.8-0.1-1.8-1V31C68.1,30.1,69.1,29.5,70,30z"/>
	</g>
	
		<linearGradient id="SVGID_2_" gradientUnits="userSpaceOnUse" x1="-13.2575" y1="611.2135" x2="11.8286" y2="611.2135" gradientTransform="matrix(-1 0 0 -1 96.4777 639.0977)">
		<stop  offset="0" style="stop-color:#F37D67"/>
		<stop  offset="1" style="stop-color:#D16C59"/>
	</linearGradient>
	<path class="st2" d="M97.2,15.3h-6.1v6.8h6.1c3.1,0,5.7,2.6,5.7,5.7s-2.6,5.7-5.7,5.7h-9.1c-1.9,0-3.4,1.5-3.4,3.4
		c0,1.9,1.5,3.4,3.4,3.4h9.1c6.9,0,12.5-5.6,12.5-12.5S104.1,15.3,97.2,15.3z"/>
	<g>
		<path class="st1" d="M94.1,25.8l-8.9-5.1c-1.5-0.9-1.5-3,0-3.9l8.9-5.1c0.8-0.5,1.8,0.1,1.8,1v12.1C95.9,25.7,94.9,26.2,94.1,25.8
			z"/>
	</g>
	<g>
		<linearGradient id="SVGID_3_" gradientUnits="userSpaceOnUse" x1="20.0521" y1="18.7806" x2="26.8938" y2="18.7806">
			<stop  offset="0" style="stop-color:#4B525A"/>
			<stop  offset="3.275092e-02" style="stop-color:#555D66"/>
			<stop  offset="1" style="stop-color:#3E454D"/>
		</linearGradient>
		<path class="st3" d="M23.5,35.6c-1.9,0-3.4-1.5-3.4-3.4V5.4c0-1.9,1.5-3.4,3.4-3.4s3.4,1.5,3.4,3.4v26.7
			C26.9,34,25.4,35.6,23.5,35.6z"/>
	</g>
	<linearGradient id="SVGID_4_" gradientUnits="userSpaceOnUse" x1="149.5342" y1="25.1552" x2="149.8382" y2="4.9343">
		<stop  offset="0" style="stop-color:#555D66"/>
		<stop  offset="1" style="stop-color:#3E454D"/>
	</linearGradient>
	<path class="st4" d="M152.1,33c-0.9,0-1.6-0.7-1.6-1.6v-7.1v-6.2V4.7c0-1.9-1.5-3.4-3.4-3.4s-3.4,1.5-3.4,3.4v13.5v6.2v7.1
		c0,4.6,3.8,8.4,8.4,8.4c1.9,0,3.4-1.5,3.4-3.4C155.5,34.5,154,33,152.1,33z"/>
	<g>
		<linearGradient id="SVGID_5_" gradientUnits="userSpaceOnUse" x1="35.7444" y1="25.0932" x2="35.7444" y2="17.1873">
			<stop  offset="0" style="stop-color:#545C65"/>
			<stop  offset="3.275092e-02" style="stop-color:#555D66"/>
			<stop  offset="1" style="stop-color:#3E454D"/>
		</linearGradient>
		<path class="st5" d="M35.7,40.5c-1.9,0-3.4-1.5-3.4-3.4V18.9c0-1.9,1.5-3.4,3.4-3.4c1.9,0,3.4,1.5,3.4,3.4v18.2
			C39.2,39,37.6,40.5,35.7,40.5z"/>
	</g>
	<g>
		<linearGradient id="SVGID_6_" gradientUnits="userSpaceOnUse" x1="35.8451" y1="24.8427" x2="48.6163" y2="16.7847">
			<stop  offset="0" style="stop-color:#545C65"/>
			<stop  offset="3.275092e-02" style="stop-color:#555D66"/>
			<stop  offset="1" style="stop-color:#3E454D"/>
		</linearGradient>
		<path class="st6" d="M35.7,28.5c-0.7,0-1.5-0.2-2.1-0.7c-1.5-1.2-1.8-3.3-0.6-4.8c0.2-0.3,5.9-7.5,13.9-7.5c1.9,0,3.4,1.5,3.4,3.4
			s-1.5,3.4-3.4,3.4c-4.6,0-8.4,4.8-8.5,4.8C37.8,28,36.8,28.5,35.7,28.5z"/>
	</g>
	<linearGradient id="SVGID_7_" gradientUnits="userSpaceOnUse" x1="9.2283" y1="38.1469" x2="23.8238" y2="13.5169">
		<stop  offset="0.6723" style="stop-color:#555D66"/>
		<stop  offset="1" style="stop-color:#3E454D"/>
	</linearGradient>
	<path class="st7" d="M20.1,32.1c0,0.9-0.7,1.6-1.6,1.6h-4.1c-3.1,0-5.7-2.6-5.7-5.7s2.6-5.7,5.7-5.7H18h2v-6.8h-5.7
		C7.4,15.5,1.8,21.1,1.8,28s5.6,12.5,12.5,12.5h4.1c4.6,0,8.4-3.8,8.4-8.4v-2.3h-6.8V32.1z"/>
	<g>
		<linearGradient id="SVGID_8_" gradientUnits="userSpaceOnUse" x1="23.4729" y1="18.2516" x2="23.4729" y2="8.6732">
			<stop  offset="0" style="stop-color:#555D66"/>
			<stop  offset="1" style="stop-color:#3E454D"/>
		</linearGradient>
		<path class="st8" d="M23.5,35.6c-1.9,0-3.4-1.5-3.4-3.4V5.4c0-1.9,1.5-3.4,3.4-3.4s3.4,1.5,3.4,3.4v26.7
			C26.9,34,25.4,35.6,23.5,35.6z"/>
	</g>
	<g>
		
			<linearGradient id="SVGID_9_" gradientUnits="userSpaceOnUse" x1="-4952.1084" y1="526.86" x2="-4945.2666" y2="526.86" gradientTransform="matrix(-1 0 0 -1 -4831.4077 564.0766)">
			<stop  offset="0" style="stop-color:#4B525A"/>
			<stop  offset="3.275092e-02" style="stop-color:#555D66"/>
			<stop  offset="1" style="stop-color:#3E454D"/>
		</linearGradient>
		<path class="st9" d="M117.3,20.4c1.9,0,3.4,1.5,3.4,3.4v26.7c0,1.9-1.5,3.4-3.4,3.4c-1.9,0-3.4-1.5-3.4-3.4V23.9
			C113.9,22,115.4,20.4,117.3,20.4z"/>
	</g>
	<linearGradient id="SVGID_10_" gradientUnits="userSpaceOnUse" x1="132.3748" y1="33.8142" x2="120.82" y2="23.3236">
		<stop  offset="0.6723" style="stop-color:#555D66"/>
		<stop  offset="1" style="stop-color:#3E454D"/>
	</linearGradient>
	<path class="st10" d="M120.7,23.9c0-0.9,0.7-1.6,1.6-1.6h4.1c3.1,0,5.7,2.6,5.7,5.7s-2.6,5.7-5.7,5.7h-3.7h-2v6.8h5.7
		c6.9,0,12.5-5.6,12.5-12.5s-5.6-12.5-12.5-12.5h-4.1c-4.6,0-8.4,3.8-8.4,8.4v2.3h6.8V23.9z"/>
	<g>
		
			<linearGradient id="SVGID_11_" gradientUnits="userSpaceOnUse" x1="-4948.6875" y1="563.0479" x2="-4948.6875" y2="542.3708" gradientTransform="matrix(-1 0 0 -1 -4831.4077 564.0766)">
			<stop  offset="0" style="stop-color:#555D66"/>
			<stop  offset="1" style="stop-color:#3E454D"/>
		</linearGradient>
		<path class="st11" d="M117.3,20.4c1.9,0,3.4,1.5,3.4,3.4v26.7c0,1.9-1.5,3.4-3.4,3.4c-1.9,0-3.4-1.5-3.4-3.4V23.9
			C113.9,22,115.4,20.4,117.3,20.4z"/>
	</g>
</g>
<linearGradient id="SVGID_12_" gradientUnits="userSpaceOnUse" x1="160.0317" y1="35.7613" x2="179.5461" y2="35.7613">
	<stop  offset="0" style="stop-color:#555D66"/>
	<stop  offset="1" style="stop-color:#3E454D"/>
</linearGradient>
<path class="st12" d="M174.4,40.9h-9.3c-2.8,0-5.1-2.3-5.1-5.1v0c0-2.8,2.3-5.1,5.1-5.1h9.3c2.8,0,5.1,2.3,5.1,5.1v0
	C179.5,38.6,177.3,40.9,174.4,40.9z"/>
<text transform="matrix(1 0 0 1 164.6094 37.6326)" class="st13 st14 st15">beta</text>
</svg>
