<?xml version="1.0" encoding="utf-8"?>
<!-- Generator: Adobe Illustrator 18.1.0, SVG Export Plug-In . SVG Version: 6.00 Build 0)  -->
<svg version="1.1" id="Calque_1" xmlns="http://www.w3.org/2000/svg" xmlns:xlink="http://www.w3.org/1999/xlink" x="0px" y="0px"
	 viewBox="-947 529 24 24" enable-background="new -947 529 24 24" xml:space="preserve">
<path fill="#CCCCCC" d="M-935,530c0.9,0,1.7,0.1,2.4,0.4c0.8,0.3,1.4,0.7,2,1.2s1.1,1.1,1.6,1.7c0.5,0.7,0.9,1.4,1.2,2.2
	c0.3,0.8,0.6,1.6,0.7,2.5c0.5,2.6,1.1,4.7,1.7,6.3c0.5,1.2,1.1,2.3,1.8,3.2c0.2,0.2,0,0.6-0.3,0.6h-8.4c0.1,0.3,0.2,0.7,0.2,1
	c0,0.8-0.3,1.5-0.9,2.1c-0.6,0.6-1.3,0.9-2.1,0.9c-0.8,0-1.5-0.3-2.1-0.9c-0.6-0.6-0.9-1.3-0.9-2.1c0-0.3,0.1-0.7,0.2-1h-8.4
	c-0.3,0-0.5-0.4-0.3-0.6c0.7-0.9,1.3-1.9,1.8-3.2c0.6-1.5,1.1-3.6,1.7-6.3c0.2-0.9,0.4-1.7,0.7-2.5c0.3-0.8,0.7-1.5,1.2-2.2
	c0.5-0.7,1-1.3,1.6-1.7c0.6-0.5,1.3-0.9,2-1.2C-936.7,530.1-935.9,530-935,530L-935,530z M-935,548c-0.3,0-0.5,0.1-0.7,0.3
	c-0.2,0.2-0.3,0.4-0.3,0.7s0.1,0.5,0.3,0.7c0.2,0.2,0.4,0.3,0.7,0.3s0.5-0.1,0.7-0.3c0.2-0.2,0.3-0.4,0.3-0.7s-0.1-0.5-0.3-0.7
	C-934.5,548.1-934.7,548-935,548z M-935,532c-0.6,0-1.2,0.1-1.7,0.3c-0.5,0.2-1,0.4-1.4,0.7s-0.7,0.6-1.1,1.1
	c-0.3,0.4-0.6,0.8-0.8,1.2c-0.2,0.4-0.4,0.8-0.6,1.2s-0.3,0.8-0.4,1.1s-0.1,0.6-0.2,0.8c-0.7,3.4-1.4,5.9-2.2,7.6h16.5
	c-0.8-1.7-1.5-4.2-2.2-7.6c-0.1-0.3-0.1-0.5-0.2-0.8s-0.2-0.6-0.4-1.1s-0.3-0.8-0.6-1.2s-0.5-0.8-0.8-1.2c-0.3-0.4-0.7-0.8-1.1-1.1
	s-0.8-0.5-1.4-0.7C-933.8,532.1-934.4,532-935,532z"/>
<path fill="none" stroke="#CCCCCC" stroke-width="1.5" stroke-linecap="round" stroke-miterlimit="10" d="M-936.2,541.2
	c0.3-0.4,0.7-0.7,1.3-0.7c0.5,0,1,0.3,1.2,0.6"/>
<circle fill="#CCCCCC" cx="-938.3" cy="539.1" r="0.8"/>
<circle fill="#CCCCCC" cx="-931.7" cy="539.1" r="0.8"/>
</svg>
