<?xml version="1.0" encoding="utf-8"?>
<!-- Generator: Adobe Illustrator 19.1.0, SVG Export Plug-In . SVG Version: 6.00 Build 0)  -->
<svg version="1.1" id="Layer_1" xmlns="http://www.w3.org/2000/svg" xmlns:xlink="http://www.w3.org/1999/xlink" x="0px" y="0px"
	 viewBox="0 0 100 100" style="enable-background:new 0 0 100 100;" xml:space="preserve">
<style type="text/css">
	.st0{fill:#D3D3D3;}
	.st1{fill:#D3D3D3;stroke:#D3D3D3;stroke-width:4;stroke-linecap:round;stroke-miterlimit:10;}
</style>
<path class="st0" d="M28.3,20.2h43.4c2.2,0,4.2,0.8,5.7,2.4s2.4,3.5,2.4,5.7v29.8c0,2.2-0.8,4.2-2.4,5.7c-1.6,1.6-3.5,2.4-5.7,2.4
	H50L31,79.8V66.3h-2.7c-2.2,0-4.2-0.8-5.7-2.4c-1.6-1.6-2.4-3.5-2.4-5.7V28.3c0-2.2,0.8-4.2,2.4-5.7C24.2,21,26.1,20.2,28.3,20.2z
	 M71.7,25.6H28.3c-0.7,0-1.4,0.3-1.9,0.8c-0.5,0.5-0.8,1.2-0.8,1.9v29.8c0,0.7,0.3,1.4,0.8,1.9c0.5,0.5,1.2,0.8,1.9,0.8h8.1v8.4
	l11.8-8.4h23.4c0.7,0,1.4-0.3,1.9-0.8c0.5-0.5,0.8-1.2,0.8-1.9V28.3c0-0.7-0.3-1.4-0.8-1.9C73.1,25.9,72.4,25.6,71.7,25.6z"/>
<line class="st1" x1="36.2" y1="39.5" x2="64.2" y2="39.5"/>
<line class="st1" x1="36" y1="47.5" x2="50.2" y2="47.5"/>
</svg>
