<?xml version="1.0" encoding="utf-8"?>
<!-- Generator: Adobe Illustrator 18.1.0, SVG Export Plug-In . SVG Version: 6.00 Build 0)  -->
<svg version="1.1" id="Calque_1" xmlns="http://www.w3.org/2000/svg" xmlns:xlink="http://www.w3.org/1999/xlink" x="0px" y="0px"
	 viewBox="0 0 151.8 151.8" enable-background="new 0 0 151.8 151.8" xml:space="preserve">
<path fill="#FFFFFF" d="M75.9,0c10.3,0,20.2,2,29.5,6s17.4,9.4,24.2,16.2c6.8,6.8,12.2,14.8,16.2,24.2c4,9.4,6,19.2,6,29.5
	s-2,20.2-6,29.5c-4,9.4-9.4,17.4-16.2,24.2c-6.8,6.8-14.8,12.2-24.2,16.2c-9.4,4-19.2,6-29.5,6s-20.2-2-29.5-6
	c-9.4-4-17.4-9.4-24.2-16.2C15.4,122.9,10,114.8,6,105.4S0,86.2,0,75.9c0-10.3,2-20.2,6-29.5S15.4,29,22.2,22.2S37,10,46.4,6
	S65.6,0,75.9,0z M75.9,13.8c-8.4,0-16.5,1.6-24.1,4.9C44.1,22,37.5,26.4,32,32S22,44.1,18.7,51.8s-4.9,15.7-4.9,24.1
	c0,8.4,1.6,16.5,4.9,24.1s7.7,14.3,13.2,19.8c5.5,5.5,12.1,9.9,19.8,13.2s15.7,4.9,24.1,4.9c8.4,0,16.5-1.6,24.1-4.9
	s14.3-7.7,19.8-13.2c5.5-5.5,9.9-12.1,13.2-19.8s4.9-15.7,4.9-24.1s-1.6-16.5-4.9-24.1s-7.7-14.3-13.2-19.8
	c-5.5-5.5-12.1-9.9-19.8-13.2S84.3,13.8,75.9,13.8z M75.9,41.4c1.9,0,3.5,0.7,4.9,2c1.3,1.3,2,3,2,4.9V69h20.7c1.9,0,3.5,0.7,4.9,2
	c1.3,1.3,2,3,2,4.9s-0.7,3.5-2,4.9c-1.3,1.3-3,2-4.9,2H82.8v20.7c0,1.9-0.7,3.5-2,4.9c-1.3,1.3-3,2-4.9,2s-3.5-0.7-4.9-2
	c-1.3-1.3-2-3-2-4.9V82.8H48.3c-1.9,0-3.5-0.7-4.9-2c-1.3-1.3-2-3-2-4.9s0.7-3.5,2-4.9s3-2,4.9-2H69V48.3c0-1.9,0.7-3.5,2-4.9
	C72.4,42.1,74,41.4,75.9,41.4z"/>
</svg>
