<?xml version="1.0" encoding="utf-8"?>
<!-- Generator: Adobe Illustrator 18.1.0, SVG Export Plug-In . SVG Version: 6.00 Build 0)  -->
<svg version="1.1" id="Calque_1" xmlns="http://www.w3.org/2000/svg" xmlns:xlink="http://www.w3.org/1999/xlink" x="0px" y="0px"
	 viewBox="-406 291.3 20 14" enable-background="new -406 291.3 20 14" xml:space="preserve">
<path fill="#FFFFFF" d="M-387,291.3c0.3,0,0.5,0.1,0.7,0.3s0.3,0.4,0.3,0.7c0,0.3-0.1,0.5-0.3,0.7l-12,12c-0.2,0.2-0.4,0.3-0.7,0.3
	s-0.5-0.1-0.7-0.3l-6-6c-0.2-0.2-0.3-0.4-0.3-0.7c0-0.3,0.1-0.5,0.3-0.7s0.4-0.3,0.7-0.3c0.3,0,0.5,0.1,0.7,0.3l5.3,5.3l11.3-11.3
	C-387.5,291.4-387.3,291.3-387,291.3z"/>
</svg>
