<?xml version="1.0" encoding="utf-8"?>
<!-- Generator: Adobe Illustrator 18.1.0, SVG Export Plug-In . SVG Version: 6.00 Build 0)  -->
<svg version="1.1" id="Calque_1" xmlns="http://www.w3.org/2000/svg" xmlns:xlink="http://www.w3.org/1999/xlink" x="0px" y="0px"
	 viewBox="-654 434.9 24 24" enable-background="new -654 434.9 24 24" xml:space="preserve">
<path fill="#F47D67" d="M-642,435.9c1.5,0,2.9,0.3,4.3,0.9c1.4,0.6,2.5,1.4,3.5,2.3c1,1,1.8,2.2,2.3,3.5c0.6,1.4,0.9,2.8,0.9,4.3
	s-0.3,2.9-0.9,4.3c-0.6,1.4-1.4,2.5-2.3,3.5c-1,1-2.2,1.8-3.5,2.3c-1.4,0.6-2.8,0.9-4.3,0.9s-2.9-0.3-4.3-0.9
	c-1.4-0.6-2.5-1.4-3.5-2.3c-1-1-1.8-2.2-2.3-3.5c-0.6-1.4-0.9-2.8-0.9-4.3s0.3-2.9,0.9-4.3c0.6-1.4,1.4-2.5,2.3-3.5
	c1-1,2.2-1.8,3.5-2.3C-644.9,436.2-643.5,435.9-642,435.9z M-641,438v2.9c0,0.3-0.1,0.5-0.3,0.7c-0.2,0.2-0.4,0.3-0.7,0.3
	s-0.5-0.1-0.7-0.3c-0.2-0.2-0.3-0.4-0.3-0.7V438c-1,0.1-2,0.4-2.9,0.9c-0.9,0.5-1.7,1-2.4,1.7s-1.3,1.5-1.7,2.4
	c-0.5,0.9-0.7,1.9-0.9,2.9h2.9c0.3,0,0.5,0.1,0.7,0.3c0.2,0.2,0.3,0.4,0.3,0.7s-0.1,0.5-0.3,0.7c-0.2,0.2-0.4,0.3-0.7,0.3h-2.9
	c0.1,1,0.4,2,0.9,2.9c0.5,0.9,1,1.7,1.7,2.4s1.5,1.3,2.4,1.7c0.9,0.5,1.9,0.7,2.9,0.9v-2.9c0-0.3,0.1-0.5,0.3-0.7
	c0.2-0.2,0.4-0.3,0.7-0.3s0.5,0.1,0.7,0.3c0.2,0.2,0.3,0.4,0.3,0.7v2.9c1-0.1,2-0.4,2.9-0.9c0.9-0.5,1.7-1,2.4-1.7s1.3-1.5,1.7-2.4
	c0.5-0.9,0.7-1.9,0.9-2.9h-2.9c-0.3,0-0.5-0.1-0.7-0.3c-0.2-0.2-0.3-0.4-0.3-0.7s0.1-0.5,0.3-0.7c0.2-0.2,0.4-0.3,0.7-0.3h2.9
	c-0.1-1-0.4-2-0.9-2.9c-0.5-0.9-1-1.7-1.7-2.4s-1.5-1.3-2.4-1.7C-639,438.4-640,438.1-641,438z"/>
</svg>
