<?xml version="1.0" encoding="UTF-8" standalone="no"?>
<!-- Generator: Adobe Illustrator 19.1.0, SVG Export Plug-In . SVG Version: 6.00 Build 0)  -->
<svg id="Layer_1" style="enable-background:new 0 0 1024 768" xmlns="http://www.w3.org/2000/svg" xml:space="preserve" viewBox="0 0 1024 768" version="1.1" y="0px" x="0px" xmlns:xlink="http://www.w3.org/1999/xlink">
<style type="text/css">
	.st0{fill:#F8F8F8;}
	.st1{opacity:0.4;fill:none;stroke:#BBBDBF;stroke-miterlimit:10;}
</style>
<rect width="1024" class="st0" height="768"/>
<line y1="131.2" x2="174.6" y2="131.2" class="st1"/>
<line y1="131.2" x2="142.7" x1="142.7" y2="100.3" class="st1"/>
<line y1="201" x2="99.1" x1="99.1" y2="131.2" class="st1"/>
<line y1="490.8" x2="274.1" y2="490.8" class="st1"/>
<line y1="400.3" x2="99.1" y2="400.3" class="st1"/>
<line y1="490.8" x2="274.1" x1="274.1" y2="424" class="st1"/>
<line y1="490.8" x2="72.5" x1="72.5" y2="457.4" class="st1"/>
<line y1="568" x2="223.6" x1="223.6" y2="490.8" class="st1"/>
<line y2="337.6" x2="99.1" y1="400.7" x1="99.1" class="st1"/>
<line y1="290.9" x2="232" y2="290.9" class="st1"/>
<line y1="322.1" x2="232" x1="232" y2="291.3" class="st1"/>
<line y1="564.6" x2="848.8" x1="1023.4" y2="564.6" class="st1"/>
<line y1="564.6" x2="880.7" x1="880.7" y2="595.4" class="st1"/>
<line y1="494.8" x2="924.3" x1="924.3" y2="564.6" class="st1"/>
<line y1="205" x2="749.3" x1="1023.4" y2="205" class="st1"/>
<line y1="295.4" x2="924.3" x1="1023.4" y2="295.4" class="st1"/>
<line y1="205" x2="749.3" x1="749.3" y2="271.8" class="st1"/>
<line y1="205" x2="950.9" x1="950.9" y2="238.4" class="st1"/>
<line y1="127.8" x2="799.8" x1="799.8" y2="205" class="st1"/>
<line y1="295" x2="924.3" x1="924.3" y2="358.2" class="st1"/>
<line y1="404.9" x2="791.4" x1="1023.4" y2="404.9" class="st1"/>
<line y1="373.6" x2="791.4" x1="791.4" y2="404.5" class="st1"/>
</svg>
