<?xml version="1.0" encoding="utf-8"?>
<!-- Generator: Adobe Illustrator 19.1.0, SVG Export Plug-In . SVG Version: 6.00 Build 0)  -->
<svg version="1.1" id="Layer_1" xmlns="http://www.w3.org/2000/svg" xmlns:xlink="http://www.w3.org/1999/xlink" x="0px" y="0px"
	 viewBox="0 0 1024 768" style="enable-background:new 0 0 1024 768;" xml:space="preserve">
<style type="text/css">
	.st0{fill:#F8F8F8;}
	.st1{opacity:0.4;fill:none;stroke:#BBBDBF;stroke-miterlimit:10;}
</style>
<rect class="st0" width="1024" height="768"/>
<line class="st1" x1="0" y1="131.2" x2="174.6" y2="131.2"/>
<line class="st1" x1="142.7" y1="131.2" x2="142.7" y2="100.3"/>
<line class="st1" x1="99.1" y1="201" x2="99.1" y2="131.2"/>
<line class="st1" x1="0" y1="490.8" x2="274.1" y2="490.8"/>
<line class="st1" x1="0" y1="400.3" x2="99.1" y2="400.3"/>
<line class="st1" x1="274.1" y1="490.8" x2="274.1" y2="424"/>
<line class="st1" x1="72.5" y1="490.8" x2="72.5" y2="457.4"/>
<line class="st1" x1="223.6" y1="568" x2="223.6" y2="490.8"/>
<line class="st1" stroke-dashoffset="0" x1="99.1" y1="400.7" x2="99.1" y2="337.6"/>
<line class="st1" x1="0" y1="290.9" x2="232" y2="290.9"/>
<line class="st1" x1="232" y1="322.1" x2="232" y2="291.3"/>
<line class="st1" x1="1023.4" y1="564.6" x2="848.8" y2="564.6"/>
<line class="st1" x1="880.7" y1="564.6" x2="880.7" y2="595.4"/>
<line class="st1" x1="924.3" y1="494.8" x2="924.3" y2="564.6"/>
<line class="st1" x1="1023.4" y1="205" x2="749.3" y2="205"/>
<line class="st1" x1="1023.4" y1="295.4" x2="924.3" y2="295.4"/>
<line class="st1" x1="749.3" y1="205" x2="749.3" y2="271.8"/>
<line class="st1" x1="950.9" y1="205" x2="950.9" y2="238.4"/>
<line class="st1" x1="799.8" y1="127.8" x2="799.8" y2="205"/>
<line class="st1" x1="924.3" y1="295" x2="924.3" y2="358.2"/>
<line class="st1" x1="1023.4" y1="404.9" x2="791.4" y2="404.9"/>
<line class="st1" x1="791.4" y1="373.6" x2="791.4" y2="404.5"/>
</svg>
