<?xml version="1.0" encoding="utf-8"?>
<!-- Generator: Adobe Illustrator 18.1.0, SVG Export Plug-In . SVG Version: 6.00 Build 0)  -->
<svg version="1.1" id="Calque_1" xmlns="http://www.w3.org/2000/svg" xmlns:xlink="http://www.w3.org/1999/xlink" x="0px" y="0px"
	 viewBox="39.4 320.3 892.9 892.5" enable-background="new 39.4 320.3 892.9 892.5" xml:space="preserve">
<path fill="#C5C6C8" d="M876.3,320.3c16,0,29.5,5.7,39.7,16.4c10.6,10.6,16,23.7,16.4,39.7c0,16-5.3,29-16.4,39.7L564.6,766.5
	l351.4,350.5c11,11,16.4,24.1,16.4,39.7c0,16-5.7,29.5-16.4,39.7c-10.6,10.6-23.7,16-39.7,16.4c-16,0-29-5.3-39.7-16.4L486.1,845.1
	l-350.5,351.4c-11,11-24.1,16.4-39.7,16.4c-16,0-29.5-5.7-39.7-16.4s-16-23.7-16.4-39.7c0-16,5.3-29,16.4-39.7l351.4-350.5L55.8,416
	c-11-11-16.4-24.1-16.4-39.7c0-16,5.7-29.5,16.4-39.7c10.6-10.2,23.7-16,39.7-16.4c16,0,29,5.3,39.7,16.4L485.6,688l350.5-351.4
	C847.2,325.6,860.7,320.3,876.3,320.3z"/>
</svg>
