<?xml version="1.0" encoding="utf-8"?>
<!-- Generator: Adobe Illustrator 18.1.0, SVG Export Plug-In . SVG Version: 6.00 Build 0)  -->
<svg version="1.1" id="Calque_1" xmlns="http://www.w3.org/2000/svg" xmlns:xlink="http://www.w3.org/1999/xlink" x="0px" y="0px"
	 viewBox="0 0 892.9 1332.3" enable-background="new 0 0 892.9 1332.3" xml:space="preserve">
<g>
	<path fill="#C5C6C8" d="M439.8,896.3c-23,0-45.9-2.4-67.7-8.5c-23-6-42.3-13.3-60.4-23c-16.9-9.7-35-21.8-51.9-35
		c-18.1-13.3-32.6-26.6-44.7-39.9c-12.1-13.3-24.2-27.8-36.2-42.3c-12.1-14.5-20.5-27.8-27.8-38.7c-7.2-10.9-13.3-21.8-19.3-32.6
		c6-10.9,12.1-21.8,19.3-32.6c7.2-10.9,15.7-24.2,27.8-38.7c4.2-5.1,8.5-10.2,12.7-15.2l-42.7-48.3c-4.6,5.4-9.1,10.8-13.5,16.4
		c-13.3,16.9-24.2,32.6-32.6,44.7c-7.2,13.3-15.7,25.4-23,38.7c-8.5,12.1-12.1,21.8-14.5,25.4c-2.4,3.6-3.6,7.2-4.8,9.7l7.2,14.5
		c6,10.9,13.3,24.2,24.2,41.1c10.9,16.9,24.2,35,38.7,55.6s32.6,39.9,54.4,60.4c21.8,20.5,44.7,38.7,68.9,55.6
		c24.2,16.9,53.2,30.2,85.8,41.1c32.6,10.9,66.5,15.7,100.3,15.7c25.3,0,48.6-2,72.6-7.8l-50.7-57.3
		C454.5,896,447.1,896.3,439.8,896.3z"/>
	<path fill="#C5C6C8" d="M812,660.7c-6.1-10.9-13.3-24.2-24.2-41.1c-10.9-16.9-24.2-35-38.7-55.6c-14.5-19.3-32.6-39.9-54.4-60.4
		C673,483.1,650,465,625.9,448c-24.2-16.9-53.2-30.2-85.8-41.1c-32.6-10.9-66.5-15.7-100.3-15.7c-15.4,0-30.7,1.2-46.1,3.4
		l52.7,59.5c20.6,0.6,40.4,4.1,61.1,9.6c23,6,43.5,13.3,60.4,23c16.9,9.7,35,21.8,52,35c18.1,13.3,32.6,26.6,44.7,39.9
		c12.1,13.3,24.2,26.6,36.2,42.3c12.1,14.5,20.5,27.8,27.8,38.7c7.2,10.9,13.3,21.8,19.3,32.6c-6,10.9-12.1,21.8-19.3,32.6
		c-6.9,10.3-14.8,21.6-25.9,36.1l43.2,48.8c12.5-16.1,22.9-31,31-42.6c7.2-13.3,15.7-25.4,23-38.7c8.5-12.1,12.1-21.8,14.5-25.4
		c2.4-3.6,3.6-7.2,4.8-9.7L812,660.7z"/>
	<path fill="#C5C6C8" d="M674.5,867.1l-42.6-48.2l-77.3-87.3l-52-58.8l-52.8-59.7L399,555.8l-68.3-77.1l-44.5-50.3L168,294.6
		c-7.2-8.5-18.1-12.1-27.8-12.1c-8.5,0-16.9,3.6-24.2,9.7c-15.7,13.3-16.9,36.3-3.6,52l110.8,125.5l42.9,48.5l72.4,82l43.7,49.5
		l75.9,86l44.9,50.8l67.2,76.1l43.4,49.1l111.4,126c7.2,8.5,18.1,12.1,27.8,12.1c8.5,0,16.9-3.6,24.2-9.7
		c15.7-14.5,16.9-37.5,3.6-53.2L674.5,867.1z"/>
</g>
</svg>
