<?xml version="1.0" encoding="utf-8"?>
<!-- Generator: Adobe Illustrator 18.1.0, SVG Export Plug-In . SVG Version: 6.00 Build 0)  -->
<svg version="1.1" id="Calque_1" xmlns="http://www.w3.org/2000/svg" xmlns:xlink="http://www.w3.org/1999/xlink" x="0px" y="0px"
	 viewBox="0 0 202.9 202.9" enable-background="new 0 0 202.9 202.9" xml:space="preserve">
<path fill="#F27D6A" d="M83,0c11.2,0,22,2.2,32.2,6.6s19.1,10.3,26.5,17.7s13.3,16.2,17.7,26.5s6.6,21,6.6,32.2
	c0,9.7-1.6,18.9-4.7,27.7c-3.1,8.8-7.6,16.9-13.4,24.1l52.4,52.3c1.8,1.8,2.7,4,2.7,6.6c0,2.6-0.9,4.8-2.6,6.6
	c-1.8,1.8-3.9,2.6-6.6,2.6c-2.6,0-4.8-0.9-6.6-2.7l-52.3-52.4c-7.2,5.8-15.2,10.3-24.1,13.4c-8.8,3.1-18.1,4.7-27.7,4.7
	c-11.2,0-22-2.2-32.2-6.6s-19.1-10.3-26.5-17.7c-7.4-7.4-13.3-16.2-17.7-26.5S0,94.2,0,83c0-11.2,2.2-22,6.6-32.2
	s10.3-19.1,17.7-26.5S40.5,11,50.8,6.6S71.7,0,83,0z M83,18.4c-8.7,0-17.1,1.7-25.1,5.1s-14.8,8-20.6,13.8S27,49.9,23.6,57.9
	c-3.4,8-5.1,16.3-5.1,25.1c0,8.7,1.7,17.1,5.1,25.1c3.4,8,8,14.8,13.8,20.6c5.8,5.8,12.6,10.3,20.6,13.8s16.3,5.1,25.1,5.1
	s17.1-1.7,25.1-5.1s14.8-8,20.6-13.8c5.8-5.8,10.3-12.6,13.8-20.6c3.4-8,5.1-16.3,5.1-25.1s-1.7-17.1-5.1-25.1
	c-3.4-8-8-14.8-13.8-20.6c-5.8-5.8-12.6-10.3-20.6-13.8S91.7,18.4,83,18.4z"/>
</svg>
