<?xml version="1.0" encoding="utf-8"?>
<!-- Generator: Adobe Illustrator 18.1.0, SVG Export Plug-In . SVG Version: 6.00 Build 0)  -->
<svg version="1.1" id="Layer_1" xmlns="http://www.w3.org/2000/svg" xmlns:xlink="http://www.w3.org/1999/xlink" x="0px" y="0px"
	 viewBox="0 0 595.3 841.9" enable-background="new 0 0 595.3 841.9" xml:space="preserve">
<path fill="#94CCCE" d="M198.8,191.2c7.1,0,13.7,2.4,18.5,7.7c5.4,5.4,7.7,11.3,7.7,19c0,7.7-2.4,13.7-7.7,19L93.5,360.2h254.8
	c32.1,0,63.1,6.5,92.9,19c29.8,12.5,54.8,29.8,76.2,51.2c21.4,21.4,38.1,47,51.2,76.2c12.5,29.2,19,60.7,19,92.9v26.8
	c0,7.1-2.4,13.7-7.7,19c-5.4,5.4-11.3,7.7-19,7.7c-7.1,0-13.7-2.4-18.5-7.7c-5.4-5.4-7.7-11.3-7.7-18.5v-26.8c0-25-4.8-49.4-14.9-72
	c-10.1-23.2-23.2-42.9-39.9-59.5c-16.7-16.7-36.3-29.8-59.5-39.9c-23.2-10.1-47-14.9-72-14.9H93.5l123.8,123.8
	c5.4,5.4,7.7,11.3,7.7,18.5c0,7.1-2.4,13.7-7.7,19c-5.4,5.4-11.3,7.7-19,7.7s-13.7-2.4-19-7.7L10.7,405.5c-5.4-5.4-7.7-11.3-7.7-19
	c0-7.1,2.4-13.7,7.7-18.5l169.1-169.1C185.1,193.5,191.1,191.2,198.8,191.2z"/>
</svg>
