<?xml version="1.0" encoding="utf-8"?>
<!-- Generator: Adobe Illustrator 19.1.0, SVG Export Plug-In . SVG Version: 6.00 Build 0)  -->
<svg version="1.1" id="Layer_1" xmlns="http://www.w3.org/2000/svg" xmlns:xlink="http://www.w3.org/1999/xlink" x="0px" y="0px"
	 viewBox="-495 369 32 32" style="enable-background:new -495 369 32 32;" xml:space="preserve">
<style type="text/css">
	.st0{fill:#E8E8EA;}
	.st1{fill:#FFD43F;}
</style>
<g>
	<path class="st0" d="M-463.1,381c-0.3-0.8-1-1.4-1.8-1.5l-8.3-1.2l-3.6-7.5c-0.4-0.8-1.2-1.3-2.1-1.3s-1.7,0.5-2.1,1.3l-3.6,7.5
		l-8.4,1.1c-0.9,0.1-1.6,0.7-1.8,1.5c-0.3,0.8-0.1,1.7,0.5,2.3l6.1,6.1l-1.4,8.5c-0.1,0.9,0.2,1.7,0.9,2.2c0.4,0.3,0.9,0.4,1.3,0.4
		s0.8-0.1,1.1-0.3l7.3-3.9l7.3,3.9c0.3,0.2,0.7,0.3,1.1,0.3c0.5,0,0.9-0.1,1.3-0.4c0.7-0.5,1.1-1.4,0.9-2.2l-1.4-8.5l6.1-6.1
		C-463.1,382.7-462.8,382-463.1,381z"/>
</g>
<path class="st1" d="M-479,369.6c-0.9,0-1.6,0.5-2,1.3l-3.6,7.5l-8.4,1.1c-0.9,0.1-1.6,0.7-1.8,1.5c-0.3,0.8-0.1,1.7,0.5,2.3
	l6.1,6.1l-1.4,8.5c-0.1,0.9,0.2,1.7,0.9,2.2c0.4,0.3,0.9,0.4,1.3,0.4c0.4,0,0.8-0.1,1.1-0.3l7.3-3.9l0,0V369.6z"/>
</svg>
