<?xml version="1.0" encoding="utf-8"?>
<!-- Generator: Adobe Illustrator 19.1.0, SVG Export Plug-In . SVG Version: 6.00 Build 0)  -->
<svg version="1.1" id="Layer_1" xmlns="http://www.w3.org/2000/svg" xmlns:xlink="http://www.w3.org/1999/xlink" x="0px" y="0px"
	 viewBox="-255 347 100 100" style="enable-background:new -255 347 100 100;" xml:space="preserve">
<style type="text/css">
	.st0{fill:#F37C63;}
</style>
<path class="st0" d="M-220.9,357.2h31.8l8,11.9h11.9c3.3,0,6.1,1.2,8.4,3.6c2.3,2.4,3.5,5.2,3.5,8.5v43.7c0,3.3-1.2,6.1-3.5,8.4
	c-2.3,2.3-5.1,3.5-8.4,3.5h-71.5c-3.3,0-6.1-1.2-8.4-3.5c-2.3-2.3-3.5-5.1-3.5-8.4v-43.7c0-3.3,1.2-6.1,3.5-8.5
	c2.3-2.4,5.1-3.5,8.4-3.5h11.9L-220.9,357.2z M-205,381.1c2.7,0,5.3,0.5,7.7,1.6c2.5,1.1,4.6,2.5,6.3,4.2s3.2,3.9,4.2,6.3
	c1.1,2.5,1.6,5,1.6,7.7c0,2.7-0.5,5.3-1.6,7.7c-1.1,2.5-2.5,4.6-4.2,6.3s-3.9,3.2-6.3,4.2c-2.5,1.1-5,1.6-7.7,1.6
	c-2.7,0-5.3-0.5-7.7-1.6c-2.5-1.1-4.6-2.5-6.3-4.2c-1.8-1.8-3.2-3.9-4.2-6.3c-1.1-2.5-1.6-5-1.6-7.7c0-2.7,0.5-5.3,1.6-7.7
	s2.5-4.6,4.2-6.3c1.8-1.8,3.9-3.2,6.3-4.2C-210.3,381.6-207.7,381.1-205,381.1z M-205,389.1c-3.3,0-6.1,1.2-8.4,3.5
	c-2.3,2.3-3.5,5.1-3.5,8.4c0,3.3,1.2,6.1,3.5,8.4c2.3,2.3,5.1,3.5,8.4,3.5s6.1-1.2,8.4-3.5c2.3-2.3,3.5-5.1,3.5-8.4
	s-1.2-6.1-3.5-8.4C-198.9,390.2-201.7,389.1-205,389.1z M-185.4,377.1l-7.8-11.9h-23.4l-7.9,11.9h-16.2c-1.1,0-2,0.4-2.8,1.2
	c-0.8,0.8-1.2,1.7-1.2,2.9v43.7c0,1.1,0.4,2,1.2,2.8c0.8,0.8,1.7,1.2,2.8,1.2h71.6c1.1,0,2.1-0.4,2.8-1.1s1.1-1.7,1.1-2.8v-43.7
	c0-1.1-0.4-2.1-1.2-2.9c-0.8-0.8-1.7-1.2-2.8-1.2H-185.4L-185.4,377.1z"/>
</svg>
