<?xml version="1.0" encoding="utf-8"?>
<!-- Generator: Adobe Illustrator 19.1.0, SVG Export Plug-In . SVG Version: 6.00 Build 0)  -->
<svg version="1.1" id="Layer_1" xmlns="http://www.w3.org/2000/svg" xmlns:xlink="http://www.w3.org/1999/xlink" x="0px" y="0px"
	 viewBox="0 0 100 100" style="enable-background:new 0 0 100 100;" xml:space="preserve">
<style type="text/css">
	.st0{opacity:0.4;}
	.st1{fill:#F47D67;}
	.st2{opacity:0.6;}
	.st3{fill:none;stroke:#F47D67;stroke-linecap:round;stroke-miterlimit:10;}
</style>
<g class="st0">
	<rect x="66" y="21.4" class="st1" width="1.2" height="0.5"/>
	<polygon class="st1" points="68.5,21.9 69.2,21.9 69.2,22.6 69.7,22.6 69.7,21.4 68.5,21.4 	"/>
	<rect x="69.2" y="64.5" class="st1" width="0.5" height="2"/>
	<rect x="69.2" y="60.5" class="st1" width="0.5" height="2"/>
	<rect x="69.2" y="56.5" class="st1" width="0.5" height="2"/>
	<rect x="69.2" y="52.5" class="st1" width="0.5" height="2"/>
	<rect x="69.2" y="68.5" class="st1" width="0.5" height="2"/>
	<rect x="69.2" y="36.6" class="st1" width="0.5" height="2"/>
	<rect x="69.2" y="24.6" class="st1" width="0.5" height="2"/>
	<rect x="69.2" y="32.6" class="st1" width="0.5" height="2"/>
	<rect x="69.2" y="48.6" class="st1" width="0.5" height="2"/>
	<rect x="69.2" y="44.6" class="st1" width="0.5" height="2"/>
	<rect x="69.2" y="40.6" class="st1" width="0.5" height="2"/>
	<rect x="69.2" y="28.6" class="st1" width="0.5" height="2"/>
	<polygon class="st1" points="69.2,73.2 68.5,73.2 68.5,73.7 69.7,73.7 69.7,72.5 69.2,72.5 	"/>
	<rect x="49" y="73.2" class="st1" width="1.9" height="0.5"/>
	<rect x="41.2" y="73.2" class="st1" width="1.9" height="0.5"/>
	<rect x="33.5" y="73.2" class="st1" width="1.9" height="0.5"/>
	<rect x="37.3" y="73.2" class="st1" width="1.9" height="0.5"/>
	<rect x="45.1" y="73.2" class="st1" width="1.9" height="0.5"/>
	<rect x="64.6" y="73.2" class="st1" width="1.9" height="0.5"/>
	<rect x="60.7" y="73.2" class="st1" width="1.9" height="0.5"/>
	<rect x="56.8" y="73.2" class="st1" width="1.9" height="0.5"/>
	<rect x="52.9" y="73.2" class="st1" width="1.9" height="0.5"/>
	<polygon class="st1" points="30.8,72.5 30.3,72.5 30.3,73.7 31.5,73.7 31.5,73.2 30.8,73.2 	"/>
	<rect x="30.3" y="34.2" class="st1" width="0.5" height="1.9"/>
	<rect x="30.3" y="41.9" class="st1" width="0.5" height="1.9"/>
	<rect x="30.3" y="38.1" class="st1" width="0.5" height="1.9"/>
	<rect x="30.3" y="30.4" class="st1" width="0.5" height="1.9"/>
	<rect x="30.3" y="45.7" class="st1" width="0.5" height="1.9"/>
	<rect x="30.3" y="68.7" class="st1" width="0.5" height="1.9"/>
	<rect x="30.3" y="64.8" class="st1" width="0.5" height="1.9"/>
	<rect x="30.3" y="61" class="st1" width="0.5" height="1.9"/>
	<rect x="30.3" y="49.5" class="st1" width="0.5" height="1.9"/>
	<rect x="30.3" y="53.4" class="st1" width="0.5" height="1.9"/>
	<rect x="30.3" y="57.2" class="st1" width="0.5" height="1.9"/>
	<path class="st1" d="M73,66.7V23.1v-0.4c0-2.5-2.1-4.6-4.6-4.6h-0.4H27.5h-0.2c-2.6,0-4.7,2.1-4.7,4.7V28H27v42.8
		c0,3.4,2.7,6.1,6.1,6.1H72h1h0.9c3.3,0,5.9-2.7,5.9-5.9v-4.4H73z M23.6,22.9c0-2.1,1.7-3.7,3.7-3.7h0.2h37.4c-1.2,0.9-2,2.4-2,4V27
		H23.6V22.9z M72,76H33.1c-2.8,0-5.1-2.3-5.1-5.1V28h2.2v0.5h0.5V28h33.2v-4.9c0-0.4,0.1-0.9,0.2-1.3h0.5v-0.5h-0.3
		c0.7-1.3,2-2.2,3.6-2.2c2.2,0,4,1.8,4,4v43.5V76z M78.8,71.1c0,2.7-2.2,4.9-4.9,4.9H73v-8.3h5.8V71.1z"/>
</g>
<g class="st2">
	<path class="st3" d="M46.7,47c0.7-1.1,2-1.8,3.4-1.8c1.4,0,2.6,0.7,3.3,1.7"/>
	<circle class="st1" cx="38.3" cy="42.6" r="1"/>
	<circle class="st1" cx="61.7" cy="42.6" r="1"/>
</g>
<g class="st0">
	<path class="st1" d="M64.4,61.8c0-2.2-1.8-3.9-3.9-3.9s-3.9,1.8-3.9,3.9c0,1.4,0.7,2.6,1.9,3.3v3.4c0,0.1,0.1,0.2,0.2,0.2
		c0.1,0,0.2,0,0.3-0.1l1.6-1.6l1.6,1.6c0,0,0.1,0.1,0.2,0.1c0,0,0.1,0,0.1,0c0.1,0,0.2-0.1,0.2-0.2v-3.4
		C63.7,64.5,64.4,63.2,64.4,61.8z M62.1,68l-1.4-1.4c-0.1-0.1-0.3-0.1-0.4,0L59,68v-2.6c0.5,0.2,1,0.3,1.6,0.3s1.1-0.1,1.6-0.3V68z
		 M60.5,64.7c-1.6,0-2.9-1.3-2.9-2.9s1.3-2.9,2.9-2.9s2.9,1.3,2.9,2.9S62.1,64.7,60.5,64.7z"/>
	<path class="st1" d="M60.5,59.8c-1.1,0-2,0.9-2,2s0.9,2,2,2s2-0.9,2-2S61.7,59.8,60.5,59.8z M60.5,63.4c-0.9,0-1.5-0.7-1.5-1.5
		s0.7-1.5,1.5-1.5s1.5,0.7,1.5,1.5S61.4,63.4,60.5,63.4z"/>
</g>
</svg>
