<?xml version="1.0" encoding="utf-8"?>
<!-- Generator: Adobe Illustrator 19.1.0, SVG Export Plug-In . SVG Version: 6.00 Build 0)  -->
<svg version="1.1" id="Layer_1" xmlns="http://www.w3.org/2000/svg" xmlns:xlink="http://www.w3.org/1999/xlink" x="0px" y="0px"
	 viewBox="0 0 100 100" style="enable-background:new 0 0 100 100;" xml:space="preserve">
<style type="text/css">
	.st0{fill:#FFFFFF;stroke:#D3D3D3;stroke-width:4;stroke-miterlimit:10;}
	.st1{fill:none;stroke:#D3D3D3;stroke-width:4;stroke-linecap:round;stroke-miterlimit:10;}
</style>
<g>
	<circle class="st0" cx="50" cy="61.5" r="16.2"/>
	<circle class="st0" cx="50" cy="61.5" r="8.7"/>
	<g>
		<path class="st0" d="M50.4,33.2c-6,0-10.9,4.9-10.9,10.9h21.8C61.3,38.1,56.4,33.2,50.4,33.2z"/>
		<path class="st1" d="M73.7,33.2c0-6-4.9-10.9-10.9-10.9S52,27.2,52,33.2"/>
		<path class="st1" d="M48,33.2c0-6-4.9-10.9-10.9-10.9s-10.9,4.9-10.9,10.9"/>
	</g>
	<g>
		<path class="st0" d="M31.1,63C41.5,63,50,54.5,50,44.1H12.2C12.2,54.5,20.7,63,31.1,63z"/>
		<path class="st0" d="M32.2,51.1c3.8,0,7-3.1,7-7H25.2C25.2,47.9,28.3,51.1,32.2,51.1z"/>
		<path class="st0" d="M19.2,51.1c-1.8,0-3.5,0.7-4.8,1.9c2.2,4.2,6,7.4,10.5,9c0.8-1.1,1.2-2.5,1.2-3.9
			C26.2,54.2,23.1,51.1,19.2,51.1z"/>
		<g>
			<path class="st0" d="M68.9,63C58.5,63,50,54.5,50,44.1h37.8C87.8,54.5,79.3,63,68.9,63z"/>
			<path class="st0" d="M67.8,51.1c-3.8,0-7-3.1-7-7h13.9C74.8,47.9,71.7,51.1,67.8,51.1z"/>
			<path class="st0" d="M80.8,51.1c1.8,0,3.5,0.7,4.8,1.9c-2.2,4.2-6,7.4-10.5,9c-0.8-1.1-1.2-2.5-1.2-3.9
				C73.8,54.2,76.9,51.1,80.8,51.1z"/>
		</g>
	</g>
	<line class="st0" x1="50" y1="77.6" x2="50" y2="44.1"/>
</g>
</svg>
