<?xml version="1.0" encoding="utf-8"?>
<!-- Generator: Adobe Illustrator 19.1.0, SVG Export Plug-In . SVG Version: 6.00 Build 0)  -->
<svg version="1.1" id="Calque_1" xmlns="http://www.w3.org/2000/svg" xmlns:xlink="http://www.w3.org/1999/xlink" x="0px" y="0px"
	 viewBox="-499 373 24 24" style="enable-background:new -499 373 24 24;" xml:space="preserve">
<style type="text/css">
	.st0{fill:#F47D67;}
</style>
<path class="st0" d="M-478,378c0.3,0,0.5,0.1,0.7,0.3s0.3,0.4,0.3,0.7s-0.1,0.5-0.3,0.7l-12,12c-0.2,0.2-0.4,0.3-0.7,0.3
	s-0.5-0.1-0.7-0.3l-6-6c-0.2-0.2-0.3-0.4-0.3-0.7s0.1-0.5,0.3-0.7s0.4-0.3,0.7-0.3c0.3,0,0.5,0.1,0.7,0.3l5.3,5.3l11.3-11.3
	C-478.5,378.1-478.3,378-478,378z"/>
</svg>
