<?xml version="1.0" encoding="utf-8"?>
<!-- Generator: Adobe Illustrator 19.1.0, SVG Export Plug-In . SVG Version: 6.00 Build 0)  -->
<svg version="1.1" id="Layer_1" xmlns="http://www.w3.org/2000/svg" xmlns:xlink="http://www.w3.org/1999/xlink" x="0px" y="0px"
	 viewBox="-499 373 24 24" style="enable-background:new -499 373 24 24;" xml:space="preserve">
<style type="text/css">
	.st0{fill:#FFFFFF;}
</style>
<path class="st0" d="M-487,374c1.5,0,2.9,0.3,4.3,0.9s2.5,1.4,3.5,2.3s1.8,2.2,2.3,3.5s0.9,2.8,0.9,4.3s-0.3,2.9-0.9,4.3
	s-1.4,2.5-2.3,3.5s-2.2,1.8-3.5,2.3s-2.8,0.9-4.3,0.9s-2.9-0.3-4.3-0.9s-2.5-1.4-3.5-2.3s-1.8-2.2-2.3-3.5s-0.9-2.8-0.9-4.3
	s0.3-2.9,0.9-4.3s1.4-2.5,2.3-3.5s2.2-1.8,3.5-2.3C-489.9,374.3-488.5,374-487,374z M-487,376c-1.2,0-2.4,0.2-3.5,0.7
	c-1.1,0.5-2.1,1.1-2.9,1.9s-1.4,1.8-1.9,2.9c-0.5,1.1-0.7,2.3-0.7,3.5s0.2,2.4,0.7,3.5c0.5,1.1,1.1,2.1,1.9,2.9s1.8,1.4,2.9,1.9
	s2.3,0.7,3.5,0.7s2.4-0.2,3.5-0.7c1.1-0.5,2.1-1.1,2.9-1.9s1.4-1.8,1.9-2.9c0.5-1.1,0.7-2.3,0.7-3.5s-0.2-2.4-0.7-3.5
	c-0.5-1.1-1.1-2.1-1.9-2.9s-1.8-1.4-2.9-1.9C-484.6,376.2-485.8,376-487,376z M-487,380c0.3,0,0.5,0.1,0.7,0.3s0.3,0.4,0.3,0.7v3h3
	c0.3,0,0.5,0.1,0.7,0.3s0.3,0.4,0.3,0.7s-0.1,0.5-0.3,0.7s-0.4,0.3-0.7,0.3h-3v3c0,0.3-0.1,0.5-0.3,0.7s-0.4,0.3-0.7,0.3
	s-0.5-0.1-0.7-0.3s-0.3-0.4-0.3-0.7v-3h-3c-0.3,0-0.5-0.1-0.7-0.3s-0.3-0.4-0.3-0.7s0.1-0.5,0.3-0.7s0.4-0.3,0.7-0.3h3v-3
	c0-0.3,0.1-0.5,0.3-0.7S-487.3,380-487,380z"/>
</svg>
