<?xml version="1.0" encoding="utf-8"?>
<!-- Generator: Adobe Illustrator 18.1.0, SVG Export Plug-In . SVG Version: 6.00 Build 0)  -->
<svg version="1.1" id="Calque_1" xmlns="http://www.w3.org/2000/svg" xmlns:xlink="http://www.w3.org/1999/xlink" x="0px" y="0px"
	 viewBox="-434 655.3 24 24" enable-background="new -434 655.3 24 24" xml:space="preserve">
<path fill="#5F6970" d="M-424,656.3h4c0.8,0,1.5,0.3,2.1,0.9s0.9,1.3,0.9,2.1v1h4c0.3,0,0.5,0.1,0.7,0.3s0.3,0.4,0.3,0.7
	c0,0.3-0.1,0.5-0.3,0.7s-0.4,0.3-0.7,0.3h-1v12c0,0.8-0.3,1.5-0.9,2.1s-1.3,0.9-2.1,0.9h-10c-0.8,0-1.5-0.3-2.1-0.9
	s-0.9-1.3-0.9-2.1v-12h-1c-0.3,0-0.5-0.1-0.7-0.3s-0.3-0.4-0.3-0.7c0-0.3,0.1-0.5,0.3-0.7s0.4-0.3,0.7-0.3h4v-1
	c0-0.8,0.3-1.5,0.9-2.1S-424.8,656.3-424,656.3z M-416,674.3v-12h-12v12c0,0.3,0.1,0.5,0.3,0.7s0.4,0.3,0.7,0.3h10
	c0.3,0,0.5-0.1,0.7-0.3S-416,674.6-416,674.3z M-420,658.3h-4c-0.3,0-0.5,0.1-0.7,0.3s-0.3,0.4-0.3,0.7v1h6v-1
	c0-0.3-0.1-0.5-0.3-0.7S-419.7,658.3-420,658.3z"/>
</svg>
