<?xml version="1.0" encoding="utf-8"?>
<!-- Generator: Adobe Illustrator 19.1.0, SVG Export Plug-In . SVG Version: 6.00 Build 0)  -->
<svg version="1.1" id="Layer_1" xmlns="http://www.w3.org/2000/svg" xmlns:xlink="http://www.w3.org/1999/xlink" x="0px" y="0px"
	 viewBox="256 -97.1 671 294.1" style="enable-background:new 256 -97.1 671 294.1;" xml:space="preserve">
<style type="text/css">
	.st0{fill:none;stroke:#E5E5E5;stroke-miterlimit:10;}
</style>
<path class="st0" d="M343.4-33.7L343.4-33.7c0-3.4,2.8-6.2,6.2-6.2h4.6c3.4,0,6.2-2.8,6.2-6.2l0,0c0-3.4-2.8-6.2-6.2-6.2h-69.5
	c-3.4,0-6.2,2.8-6.2,6.2l0,0c0,3.4,2.8,6.2,6.2,6.2h20.4c3.4,0,6.2,2.8,6.2,6.2l0,0c0,3.4-2.8,6.2-6.2,6.2h-2.4
	c-3.4,0-6.2,2.8-6.2,6.2l0,0c0,3.4,2.8,6.2,6.2,6.2h67.1c3.4,0,6.2-2.8,6.2-6.2l0,0c0-3.4-2.8-6.2-6.2-6.2h-20.2
	C346.2-27.5,343.4-30.3,343.4-33.7z"/>
<path class="st0" d="M735-26.8L735-26.8c0,6.5,5.3,11.8,11.8,11.8h36.8c6.5,0,11.8,5.3,11.8,11.8l0,0c0,6.5,5.3,11.8,11.8,11.8h46.5
	c6.5,0,11.8-5.3,11.8-11.8l0,0c0-6.5,5.3-11.8,11.8-11.8h1c6.5,0,11.8-5.3,11.8-11.8l0,0c0-6.5-5.3-11.8-11.8-11.8H746.7
	C740.2-38.6,735-33.3,735-26.8z"/>
<path class="st0" d="M430.9,49.9h-41c-2.9,0-5.3-2.4-5.3-5.3l0,0c0-2.9,2.4-5.3,5.3-5.3h41c2.9,0,5.3,2.4,5.3,5.3l0,0
	C436.2,47.6,433.8,49.9,430.9,49.9z"/>
<path class="st0" d="M449.5,49.9L449.5,49.9c-2.8,0-5.1-2.3-5.1-5.1v-0.4c0-2.8,2.3-5.1,5.1-5.1l0,0c2.8,0,5.1,2.3,5.1,5.1v0.4
	C454.6,47.6,452.3,49.9,449.5,49.9z"/>
<path class="st0" d="M747.4,107.8L747.4,107.8c0-3.4-2.8-6.2-6.2-6.2h-4.6c-3.4,0-6.2-2.8-6.2-6.2l0,0c0-3.4,2.8-6.2,6.2-6.2h69.6
	c3.4,0,6.2,2.8,6.2,6.2l0,0c0,3.4-2.8,6.2-6.2,6.2h-20.4c-3.4,0-6.2,2.8-6.2,6.2l0,0c0,3.4,2.8,6.2,6.2,6.2h2.4
	c3.4,0,6.2,2.8,6.2,6.2l0,0c0,3.4-2.8,6.2-6.2,6.2h-67.1c-3.4,0-6.2-2.8-6.2-6.2l0,0c0-3.4,2.8-6.2,6.2-6.2h20.2
	C744.6,114,747.4,111.3,747.4,107.8z"/>
<path class="st0" d="M664.6-47.1h-41c-2.9,0-5.3-2.4-5.3-5.3l0,0c0-2.9,2.4-5.3,5.3-5.3h41c2.9,0,5.3,2.4,5.3,5.3l0,0
	C670-49.5,667.6-47.1,664.6-47.1z"/>
</svg>
