<?xml version="1.0" encoding="utf-8"?>
<!-- Generator: Adobe Illustrator 18.1.0, SVG Export Plug-In . SVG Version: 6.00 Build 0)  -->
<svg version="1.1" id="Calque_1" xmlns="http://www.w3.org/2000/svg" xmlns:xlink="http://www.w3.org/1999/xlink" x="0px" y="0px"
	 viewBox="0 0 73.9 80.5" enable-background="new 0 0 73.9 80.5" xml:space="preserve">
<path fill="#F49280" d="M36.4,17.5c2.8,0,5.6,0.4,8.3,1.3c2.7,0.9,5.1,2,7.1,3.4c2,1.4,3.9,2.9,5.7,4.6s3.3,3.4,4.5,5
	c1.2,1.7,2.3,3.2,3.2,4.6c0.9,1.4,1.5,2.5,2,3.4l0.6,1.3c-0.1,0.2-0.2,0.5-0.4,0.8c-0.2,0.3-0.5,1.1-1.2,2.1
	c-0.6,1.1-1.3,2.1-1.9,3.2c-0.7,1-1.6,2.3-2.7,3.7c-1.1,1.4-2.3,2.7-3.5,3.9c-1.2,1.2-2.6,2.4-4.3,3.7c-1.6,1.2-3.3,2.3-5,3.2
	c-1.7,0.9-3.7,1.6-5.8,2.1c-2.2,0.6-4.3,0.8-6.6,0.8c-2.8,0-5.6-0.4-8.3-1.3s-5.1-2-7.1-3.4c-2-1.4-3.9-2.9-5.7-4.6
	c-1.8-1.7-3.3-3.3-4.5-5s-2.3-3.2-3.2-4.6c-0.9-1.4-1.5-2.5-2-3.4L5,41.1c0.1-0.2,0.2-0.5,0.4-0.8c0.2-0.3,0.5-1.1,1.2-2.1
	c0.6-1.1,1.3-2.1,1.9-3.2c0.7-1,1.6-2.3,2.7-3.7s2.3-2.7,3.5-4c1.2-1.2,2.6-2.5,4.3-3.7c1.6-1.2,3.3-2.3,5-3.2
	c1.7-0.9,3.7-1.6,5.8-2.1C32,17.8,34.2,17.5,36.4,17.5L36.4,17.5z M36.4,22.7c-1.9,0-3.8,0.3-5.6,0.8c-1.8,0.5-3.5,1.2-5,2
	c-1.5,0.8-2.9,1.8-4.3,2.9c-1.4,1.1-2.6,2.2-3.7,3.3c-1,1.1-2,2.3-3,3.5s-1.7,2.3-2.3,3.2s-1.1,1.8-1.6,2.7c0.5,0.9,1,1.8,1.6,2.7
	s1.3,2,2.3,3.2s2,2.4,3,3.5c1,1.1,2.2,2.2,3.7,3.3c1.4,1.1,2.9,2.1,4.3,2.9c1.5,0.8,3.1,1.4,5,1.9c1.8,0.5,3.7,0.7,5.6,0.7
	c1.9,0,3.8-0.3,5.6-0.8c1.8-0.5,3.5-1.2,5-1.9c1.5-0.8,2.9-1.7,4.3-2.9c1.4-1.1,2.6-2.2,3.7-3.3c1-1.1,2-2.3,3-3.5
	c1-1.3,1.7-2.3,2.3-3.2c0.6-0.9,1.1-1.8,1.6-2.7c-0.5-0.9-1-1.8-1.6-2.7c-0.6-0.9-1.3-2-2.3-3.2c-1-1.3-2-2.4-3-3.5
	c-1-1.1-2.2-2.2-3.7-3.3c-1.4-1.1-2.9-2.1-4.3-2.9s-3.1-1.4-5-1.9S38.3,22.7,36.4,22.7z M36.4,30.6c2.9,0,5.4,1,7.4,3.1
	c2,2,3.1,4.5,3.1,7.4c0,2.9-1,5.4-3.1,7.4c-2,2-4.5,3.1-7.4,3.1s-5.4-1-7.4-3.1c-2-2-3.1-4.5-3.1-7.4c0-2.9,1-5.4,3.1-7.4
	C31,31.6,33.5,30.6,36.4,30.6z M36.4,35.8c-1.4,0-2.7,0.5-3.7,1.5c-1,1-1.5,2.3-1.5,3.7c0,1.4,0.5,2.7,1.5,3.7c1,1,2.3,1.5,3.7,1.5
	s2.7-0.5,3.7-1.5c1-1,1.5-2.3,1.5-3.7c0-1.4-0.5-2.7-1.5-3.7C39.1,36.3,37.8,35.8,36.4,35.8z"/>
</svg>
