<?xml version="1.0" encoding="utf-8"?>
<!-- Generator: Adobe Illustrator 19.1.0, SVG Export Plug-In . SVG Version: 6.00 Build 0)  -->
<svg version="1.1" id="Layer_1" xmlns="http://www.w3.org/2000/svg" xmlns:xlink="http://www.w3.org/1999/xlink" x="0px" y="0px"
	 viewBox="-255 347 100 100" style="enable-background:new -255 347 100 100;" xml:space="preserve">
<style type="text/css">
	.st0{fill:#F47D67;}
	.st1{fill:none;stroke:#F47D67;stroke-linecap:round;stroke-miterlimit:10;}
</style>
<g>
	<g>
		<rect x="-181.9" y="356.3" class="st0" width="1.9" height="0.8"/>
		<polygon class="st0" points="-178.1,357.1 -177,357.1 -177,358.2 -176.2,358.2 -176.2,356.3 -178.1,356.3 		"/>
		<rect x="-177" y="423.5" class="st0" width="0.8" height="3.1"/>
		<rect x="-177" y="417.2" class="st0" width="0.8" height="3.1"/>
		<rect x="-177" y="411" class="st0" width="0.8" height="3.1"/>
		<rect x="-177" y="404.8" class="st0" width="0.8" height="3.1"/>
		<rect x="-177" y="429.7" class="st0" width="0.8" height="3.1"/>
		<rect x="-177" y="380" class="st0" width="0.8" height="3.1"/>
		<rect x="-177" y="361.3" class="st0" width="0.8" height="3.1"/>
		<rect x="-177" y="373.8" class="st0" width="0.8" height="3.1"/>
		<rect x="-177" y="398.7" class="st0" width="0.8" height="3.1"/>
		<rect x="-177" y="392.5" class="st0" width="0.8" height="3.1"/>
		<rect x="-177" y="386.3" class="st0" width="0.8" height="3.1"/>
		<rect x="-177" y="367.6" class="st0" width="0.8" height="3.1"/>
		<polygon class="st0" points="-177,437 -178.1,437 -178.1,437.8 -176.2,437.8 -176.2,435.9 -177,435.9 		"/>
		<rect x="-208.4" y="437" class="st0" width="3" height="0.8"/>
		<rect x="-220.6" y="437" class="st0" width="3" height="0.8"/>
		<rect x="-232.6" y="437" class="st0" width="3" height="0.8"/>
		<rect x="-226.7" y="437" class="st0" width="3" height="0.8"/>
		<rect x="-214.5" y="437" class="st0" width="3" height="0.8"/>
		<rect x="-184.1" y="437" class="st0" width="3" height="0.8"/>
		<rect x="-190.2" y="437" class="st0" width="3" height="0.8"/>
		<rect x="-196.3" y="437" class="st0" width="3" height="0.8"/>
		<rect x="-202.4" y="437" class="st0" width="3" height="0.8"/>
		<polygon class="st0" points="-236.8,435.9 -237.6,435.9 -237.6,437.8 -235.7,437.8 -235.7,437 -236.8,437 		"/>
		<rect x="-237.6" y="376.3" class="st0" width="0.8" height="3"/>
		<rect x="-237.6" y="388.3" class="st0" width="0.8" height="3"/>
		<rect x="-237.6" y="382.4" class="st0" width="0.8" height="3"/>
		<rect x="-237.6" y="370.4" class="st0" width="0.8" height="3"/>
		<rect x="-237.6" y="394.2" class="st0" width="0.8" height="3"/>
		<rect x="-237.6" y="430" class="st0" width="0.8" height="3"/>
		<rect x="-237.6" y="423.9" class="st0" width="0.8" height="3"/>
		<rect x="-237.6" y="418" class="st0" width="0.8" height="3"/>
		<rect x="-237.6" y="400.1" class="st0" width="0.8" height="3"/>
		<rect x="-237.6" y="406.2" class="st0" width="0.8" height="3"/>
		<rect x="-237.6" y="412.1" class="st0" width="0.8" height="3"/>
		<path class="st0" d="M-171,426.9V359v-0.6c0-3.9-3.3-7.2-7.2-7.2h-0.6h-63.1h-0.3c-4,0-7.3,3.3-7.3,7.3v8.1h6.9v66.7
			c0,5.3,4.2,9.5,9.5,9.5h60.6h1.6h1.4c5.1,0,9.2-4.2,9.2-9.2v-6.9H-171V426.9z M-248,358.7c0-3.3,2.6-5.8,5.8-5.8h0.3h58.3
			c-1.9,1.4-3.1,3.7-3.1,6.2v5.9H-248V358.7z M-172.6,441.4h-60.6c-4.4,0-7.9-3.6-7.9-7.9v-66.8h3.4v0.8h0.8v-0.8h51.7V359
			c0-0.6,0.2-1.4,0.3-2h0.8v-0.8h-0.5c1.1-2,3.1-3.4,5.6-3.4c3.4,0,6.2,2.8,6.2,6.2v67.8v14.6H-172.6z M-162,433.8
			c0,4.2-3.4,7.6-7.6,7.6h-1.4v-12.9h9V433.8z"/>
	</g>
	<g>
		<path class="st1" d="M-201.6,393.6c-1.1,1.6-3,2.6-5.1,2.6s-4.2-1.1-5.3-2.8"/>
		<circle class="st0" cx="-225.1" cy="389.4" r="1.6"/>
		<circle class="st0" cx="-188.6" cy="389.4" r="1.6"/>
	</g>
	<g>
		<g>
			<path class="st0" d="M-194.8,431.6c-6.7,0-12.1-5.4-12.1-12.1c0-6.7,5.4-12.1,12.1-12.1s12.1,5.4,12.1,12.1
				C-182.7,426.1-188.1,431.6-194.8,431.6z M-194.8,409.6c-5.4,0-9.8,4.4-9.8,9.8s4.4,9.8,9.8,9.8s9.8-4.4,9.8-9.8
				S-189.4,409.6-194.8,409.6z"/>
		</g>
		<g>
			<path class="st0" d="M-196.2,423.7c-0.3,0-0.6-0.1-0.8-0.3l-3.5-3.5c-0.5-0.5-0.5-1.2,0-1.7s1.2-0.5,1.7,0l2.7,2.7l5.5-5.5
				c0.5-0.5,1.2-0.5,1.7,0c0.5,0.5,0.5,1.2,0,1.7l-6.3,6.3C-195.6,423.6-195.9,423.7-196.2,423.7z"/>
		</g>
	</g>
</g>
</svg>
