<?xml version="1.0" encoding="utf-8"?>
<!-- Generator: Adobe Illustrator 19.1.0, SVG Export Plug-In . SVG Version: 6.00 Build 0)  -->
<svg version="1.1" id="Layer_1" xmlns="http://www.w3.org/2000/svg" xmlns:xlink="http://www.w3.org/1999/xlink" x="0px" y="0px"
	 viewBox="-255 347 100 100" style="enable-background:new -255 347 100 100;" xml:space="preserve">
<style type="text/css">
	.st0{fill:#F37C63;}
</style>
<path class="st0" d="M-221.6,358.4c1.2,0,2.3,0.4,3.1,1.3c0.9,0.9,1.3,1.9,1.3,3.2c0,1.3-0.4,2.3-1.3,3.2l-20.8,20.7h42.8
	c5.4,0,10.6,1.1,15.6,3.2s9.2,5,12.8,8.6s6.4,7.9,8.6,12.8c2.1,4.9,3.2,10.2,3.2,15.6v4.5c0,1.2-0.4,2.3-1.3,3.2
	c-0.9,0.9-1.9,1.3-3.2,1.3c-1.2,0-2.3-0.4-3.1-1.3c-0.9-0.9-1.3-1.9-1.3-3.1v-4.5c0-4.2-0.8-8.3-2.5-12.1c-1.7-3.9-3.9-7.2-6.7-10
	c-2.8-2.8-6.1-5-10-6.7c-3.9-1.7-7.9-2.5-12.1-2.5h-42.8l20.8,20.8c0.9,0.9,1.3,1.9,1.3,3.1c0,1.2-0.4,2.3-1.3,3.2s-1.9,1.3-3.2,1.3
	s-2.3-0.4-3.2-1.3l-28.3-28.5c-0.9-0.9-1.3-1.9-1.3-3.2c0-1.2,0.4-2.3,1.3-3.1l28.4-28.4C-223.9,358.8-222.9,358.4-221.6,358.4z"/>
</svg>
