<?xml version="1.0" encoding="utf-8"?>
<!-- Generator: Adobe Illustrator 18.1.0, SVG Export Plug-In . SVG Version: 6.00 Build 0)  -->
<svg version="1.1" id="Calque_1" xmlns="http://www.w3.org/2000/svg" xmlns:xlink="http://www.w3.org/1999/xlink" x="0px" y="0px"
	 viewBox="-436 657.3 20 20" enable-background="new -436 657.3 20 20" xml:space="preserve">
<path fill="#F47D67" d="M-431.7,677c0.3-1,0.8-2.4,1.4-4.5c2.7-0.4,3.8,0.3,5.5-2.8c-1.4,0.4-3.1-0.8-3-1.3s3.9,0.4,6.4-3.2
	c-3.2,0.7-4.2-0.9-3.8-1.1c0.9-0.5,3.7-0.2,5.2-1.7c0.8-0.8,1.1-2.6,0.8-3.3c-0.4-0.8-2.7-2-3.9-1.9c-1.3,0.1-3.2,4.9-3.8,4.9
	c-0.6,0-0.7-2.1,0.3-4.1c-1.1,0.5-3.1,2-3.7,3.3c-1.2,2.4,0.1,7.9-0.3,8.1c-0.4,0.2-1.8-2.5-2.2-3.8c-0.6,1.9-0.6,3.8,1.1,6.3
	c-0.6,1.7-0.9,3.6-1,4.5C-432.6,677.3-431.9,677.5-431.7,677z"/>
</svg>
