<?xml version="1.0" encoding="utf-8"?>
<!-- Generator: Adobe Illustrator 19.1.0, SVG Export Plug-In . SVG Version: 6.00 Build 0)  -->
<svg version="1.1" id="Layer_1" xmlns="http://www.w3.org/2000/svg" xmlns:xlink="http://www.w3.org/1999/xlink" x="0px" y="0px"
	 viewBox="0 0 500 500" style="enable-background:new 0 0 500 500;" xml:space="preserve">
<style type="text/css">
	.st0{opacity:0.15;}
	.st1{fill:#FFFFFF;}
</style>
<rect x="-78.8" y="-29.9" class="st0" width="657.7" height="571.8"/>
<path class="st1" d="M163.9,131.6h172.2c8.9,0,16.5,3.2,22.8,9.5c6.3,6.3,9.5,13.9,9.5,22.8v172.2c0,8.9-3.2,16.5-9.5,22.8
	s-13.9,9.5-22.8,9.5H163.9c-8.9,0-16.5-3.2-22.8-9.5c-6.3-6.3-9.5-13.9-9.5-22.8V163.9c0-8.9,3.2-16.5,9.5-22.8
	C147.4,134.8,155,131.6,163.9,131.6z M346.9,308.3l-53.8-53.8l-92.4,92.4h135.5c3,0,5.5-1.1,7.6-3.2s3.2-4.6,3.2-7.6V308.3z
	 M336.1,153.1H163.9c-3,0-5.5,1.1-7.6,3.2c-2.1,2.1-3.2,4.6-3.2,7.6v172.2c0,3,1.1,5.5,3.2,7.6c2.1,2.1,4.6,3.2,7.6,3.2h6.3
	L293.1,224l53.8,53.8V163.9c0-3-1.1-5.5-3.2-7.6C341.6,154.2,339.1,153.1,336.1,153.1z M206.9,174.7c8.9,0,16.5,3.2,22.8,9.5
	c6.3,6.3,9.5,13.9,9.5,22.8s-3.2,16.5-9.5,22.8c-6.3,6.3-13.9,9.5-22.8,9.5c-8.9,0-16.5-3.2-22.8-9.5c-6.3-6.3-9.5-13.9-9.5-22.8
	c0-8.9,3.2-16.5,9.5-22.8C190.4,177.8,198,174.7,206.9,174.7z M206.9,196.2c-3,0-5.5,1.1-7.6,3.2c-2.1,2.1-3.2,4.6-3.2,7.6
	s1.1,5.5,3.2,7.6c2.1,2.1,4.6,3.2,7.6,3.2s5.5-1.1,7.6-3.2c2.1-2.1,3.2-4.6,3.2-7.6s-1.1-5.5-3.2-7.6
	C212.5,197.2,209.9,196.2,206.9,196.2z"/>
</svg>
