<?xml version="1.0" encoding="utf-8"?>
<!-- Generator: Adobe Illustrator 19.1.0, SVG Export Plug-In . SVG Version: 6.00 Build 0)  -->
<svg version="1.1" id="Layer_1" xmlns="http://www.w3.org/2000/svg" xmlns:xlink="http://www.w3.org/1999/xlink" x="0px" y="0px"
	 viewBox="0 0 100 100" style="enable-background:new 0 0 100 100;" xml:space="preserve">
<style type="text/css">
	.st0{opacity:0.4;}
	.st1{fill:none;stroke:#F47D67;stroke-linecap:round;stroke-miterlimit:10;}
	.st2{fill:#FFFFFF;stroke:#F47D67;stroke-linecap:round;stroke-miterlimit:10;}
	.st3{fill:#F47D67;}
</style>
<g class="st0">
	<line class="st1" x1="7.9" y1="72.4" x2="92.1" y2="72.4"/>
	<g>
		<g>
			<rect x="23.7" y="54.5" class="st2" width="23.2" height="2"/>
			<rect x="39.7" y="54.5" class="st2" width="7.2" height="2"/>
			<rect x="33" y="43.9" class="st2" width="1.4" height="10.6"/>
			<rect x="23.7" y="56.5" class="st2" width="1.4" height="15.9"/>
			<rect x="38.3" y="56.5" class="st2" width="1.4" height="15.9"/>
			<rect x="33" y="56.5" class="st2" width="1.4" height="15.9"/>
			<rect x="45.5" y="56.5" class="st2" width="1.4" height="15.9"/>
			<rect x="45.5" y="43.9" class="st2" width="1.4" height="10.6"/>
			<path class="st2" d="M44.9,37.4H35c-1.1,0-2,0.9-2,2v9.8h13.9v-9.8C46.9,38.3,46,37.4,44.9,37.4z"/>
		</g>
		<g>
			<path class="st1" d="M64.5,38l-7.7,2.2c-0.8,0.2-1.7-0.2-1.9-1.1l0,0c-0.2-0.8,0.2-1.7,1.1-1.9l7.7-2.2c0.8-0.2,1.7,0.2,1.9,1.1
				v0C65.8,36.9,65.3,37.8,64.5,38z"/>
			<path class="st1" d="M70.3,72.1L70.3,72.1c-4.4,1.3-9.1-1.2-10.3-5.7l-1.8-6.2c-0.3-1,0.3-2,1.3-2.3l12.4-3.6
				c1-0.3,2,0.3,2.3,1.3l1.8,6.2C77.3,66.1,74.7,70.8,70.3,72.1z"/>
			<path class="st1" d="M72,56.6l1.7,5.8c0.9,3.2-0.9,6.5-4.1,7.5h0c-3.2,0.9-6.5-0.9-7.5-4.1L60.5,60"/>
			<path class="st2" d="M59.3,34.4L59.3,34.4c-0.9,0.3-1.4,1.2-1.1,2L64,56.5l3.1-0.9l-5.9-20.1C61.1,34.7,60.2,34.2,59.3,34.4z"/>
			<line class="st1" x1="63.3" y1="53.8" x2="66.4" y2="52.9"/>
		</g>
		<g>
			<circle class="st2" cx="36.6" cy="65.7" r="6.7"/>
			<path class="st3" d="M35,67.5l-0.8-1.4c-0.2-0.3-0.2-0.6,0-0.9l0.8-1.4c0.2-0.3,0.4-0.4,0.7-0.4h1.7c0.3,0,0.6,0.2,0.7,0.4
				l0.8,1.4c0.2,0.3,0.2,0.6,0,0.9l-0.8,1.4C38,67.8,37.8,68,37.4,68h-1.7C35.5,68,35.2,67.8,35,67.5z"/>
			<path class="st3" d="M34.2,59.4L35,61c0.2,0.3,0.4,0.4,0.7,0.4h1.7c0.3,0,0.6-0.2,0.7-0.4l0.9-1.5c-0.8-0.3-1.6-0.5-2.5-0.5
				S34.9,59.1,34.2,59.4z"/>
			<path class="st3" d="M40.9,66.1l0.8,1.4c0.2,0.3,0.4,0.4,0.7,0.4h0.4c0.3-0.7,0.4-1.5,0.4-2.3c0-0.8-0.2-1.6-0.4-2.3h-0.4
				c-0.3,0-0.6,0.2-0.7,0.4l-0.8,1.4C40.7,65.5,40.7,65.8,40.9,66.1z"/>
			<path class="st3" d="M30.8,63.3h-0.4c-0.3,0.7-0.4,1.5-0.4,2.3c0,0.8,0.2,1.6,0.4,2.3h0.4c0.3,0,0.6-0.2,0.7-0.4l0.8-1.4
				c0.2-0.3,0.2-0.6,0-0.9l-0.8-1.4C31.3,63.5,31.1,63.3,30.8,63.3z"/>
			<path class="st3" d="M34.2,71.9c0.7,0.3,1.6,0.5,2.4,0.5c0.9,0,1.7-0.2,2.4-0.5l-0.8-1.4C38,70.2,37.8,70,37.4,70h-1.7
				c-0.3,0-0.6,0.2-0.7,0.4L34.2,71.9z"/>
		</g>
		<path class="st1" d="M68.7,27.6"/>
		<path class="st1" d="M65.2,27.6"/>
		<g>
			<rect x="51.7" y="41.6" class="st2" width="1.8" height="29.3"/>
			<path class="st2" d="M52.6,41.9L52.6,41.9c-0.8,0-1.5-0.7-1.5-1.5v-0.8h3.1v0.8C54.1,41.2,53.4,41.9,52.6,41.9z"/>
			<path class="st2" d="M52.6,40.1L52.6,40.1c-1.8,0-3.3-1.5-3.3-3.3v-5.6c0-1.8,1.5-3.3,3.3-3.3h0c1.8,0,3.3,1.5,3.3,3.3v5.6
				C55.8,38.6,54.4,40.1,52.6,40.1z"/>
			<line class="st1" x1="49.3" y1="32.4" x2="51.7" y2="32.4"/>
			<line class="st1" x1="49.3" y1="34" x2="51.7" y2="34"/>
			<line class="st1" x1="49.3" y1="35.7" x2="51.7" y2="35.7"/>
			<line class="st1" x1="54.6" y1="32.4" x2="55.8" y2="32.4"/>
			<line class="st1" x1="54.6" y1="34" x2="55.8" y2="34"/>
			<line class="st1" x1="54.6" y1="35.7" x2="55.8" y2="35.7"/>
			<path class="st2" d="M57.5,72.4h-9.8v0c0-1.7,1.3-3,3-3h3.8C56.1,69.4,57.5,70.7,57.5,72.4L57.5,72.4z"/>
		</g>
	</g>
</g>
</svg>
