<?xml version="1.0" encoding="utf-8"?>
<!-- Generator: Adobe Illustrator 18.1.0, SVG Export Plug-In . SVG Version: 6.00 Build 0)  -->
<svg version="1.1" id="Layer_1" xmlns="http://www.w3.org/2000/svg" xmlns:xlink="http://www.w3.org/1999/xlink" x="0px" y="0px"
	 viewBox="201.8 381.3 510.7 525" enable-background="new 201.8 381.3 510.7 525" xml:space="preserve">
<g opacity="0.4">
	<rect x="589.3" y="410.8" fill="#F47D67" width="10.7" height="4.5"/>
	<polygon fill="#F47D67" points="611.6,415.2 617.9,415.2 617.9,421.5 622.4,421.5 622.4,410.8 611.6,410.8 	"/>
	<rect x="617.9" y="795.6" fill="#F47D67" width="4.5" height="17.9"/>
	<rect x="617.9" y="759.9" fill="#F47D67" width="4.5" height="17.9"/>
	<rect x="617.9" y="724.2" fill="#F47D67" width="4.5" height="17.9"/>
	<rect x="617.9" y="688.5" fill="#F47D67" width="4.5" height="17.9"/>
	<rect x="617.9" y="831.3" fill="#F47D67" width="4.5" height="17.9"/>
	<rect x="617.9" y="546.5" fill="#F47D67" width="4.5" height="17.9"/>
	<rect x="617.9" y="439.3" fill="#F47D67" width="4.5" height="17.9"/>
	<rect x="617.9" y="510.8" fill="#F47D67" width="4.5" height="17.9"/>
	<rect x="617.9" y="653.6" fill="#F47D67" width="4.5" height="17.9"/>
	<rect x="617.9" y="617.9" fill="#F47D67" width="4.5" height="17.9"/>
	<rect x="617.9" y="582.2" fill="#F47D67" width="4.5" height="17.9"/>
	<rect x="617.9" y="475.1" fill="#F47D67" width="4.5" height="17.9"/>
	<polygon fill="#F47D67" points="617.9,873.3 611.6,873.3 611.6,877.8 622.4,877.8 622.4,867 617.9,867 	"/>
	<rect x="437.5" y="873.3" fill="#F47D67" width="17" height="4.5"/>
	<rect x="367.9" y="873.3" fill="#F47D67" width="17" height="4.5"/>
	<rect x="299.1" y="873.3" fill="#F47D67" width="17" height="4.5"/>
	<rect x="333.1" y="873.3" fill="#F47D67" width="17" height="4.5"/>
	<rect x="402.7" y="873.3" fill="#F47D67" width="17" height="4.5"/>
	<rect x="576.8" y="873.3" fill="#F47D67" width="17" height="4.5"/>
	<rect x="542" y="873.3" fill="#F47D67" width="17" height="4.5"/>
	<rect x="507.2" y="873.3" fill="#F47D67" width="17" height="4.5"/>
	<rect x="472.3" y="873.3" fill="#F47D67" width="17" height="4.5"/>
	<polygon fill="#F47D67" points="275,867 270.6,867 270.6,877.8 281.3,877.8 281.3,873.3 275,873.3 	"/>
	<rect x="270.6" y="525.1" fill="#F47D67" width="4.5" height="17"/>
	<rect x="270.6" y="593.8" fill="#F47D67" width="4.5" height="17"/>
	<rect x="270.6" y="559.9" fill="#F47D67" width="4.5" height="17"/>
	<rect x="270.6" y="491.1" fill="#F47D67" width="4.5" height="17"/>
	<rect x="270.6" y="627.7" fill="#F47D67" width="4.5" height="17"/>
	<rect x="270.6" y="833.1" fill="#F47D67" width="4.5" height="17"/>
	<rect x="270.6" y="798.3" fill="#F47D67" width="4.5" height="17"/>
	<rect x="270.6" y="764.4" fill="#F47D67" width="4.5" height="17"/>
	<rect x="270.6" y="661.7" fill="#F47D67" width="4.5" height="17"/>
	<rect x="270.6" y="696.5" fill="#F47D67" width="4.5" height="17"/>
	<rect x="270.6" y="730.4" fill="#F47D67" width="4.5" height="17"/>
	<path fill="#F47D67" d="M651.8,815.3V425.9v-3.6c0-22.3-18.8-41.1-41.1-41.1h-3.6H245.6h-1.8c-23.2,0-42,18.8-42,42v46.4h39.3
		v382.2c0,30.4,24.1,54.5,54.5,54.5h347.3h8.9h8c29.5,0,52.7-24.1,52.7-52.7v-39.3h-60.7V815.3z M210.7,424.2c0-18.8,15.2-33,33-33
		h1.8h333.9c-10.7,8-17.9,21.4-17.9,35.7v33.9H210.7V424.2z M642.9,898.3H295.6c-25,0-45.5-20.5-45.5-45.5V469.7h19.6v4.5h4.5v-4.5
		h296.4v-43.8c0-3.6,0.9-8,1.8-11.6h4.5v-4.5h-2.7c6.3-11.6,17.9-19.6,32.1-19.6c19.6,0,35.7,16.1,35.7,35.7v388.4v83.9H642.9z
		 M703.6,854.5c0,24.1-19.6,43.8-43.8,43.8h-8v-74.1h51.8V854.5z"/>
</g>
<path opacity="0.4" fill="none" stroke="#F47D67" stroke-width="8" stroke-linecap="round" stroke-miterlimit="10" d="M417,606.3
	c6.3-9.8,17.9-16.1,30.4-16.1c12.5,0,23.2,6.3,29.5,15.2"/>
<circle opacity="0.4" fill="#F47D67" cx="342" cy="567" r="8.9"/>
<circle opacity="0.4" fill="#F47D67" cx="550.9" cy="567" r="8.9"/>
<g opacity="0.4">
	<path fill="#F47D67" d="M383.6,804.4c-5.9-1.7-10.1-4.3-12.6-7.9c-2.5-3.6-3.7-8-3.7-13.2V774c0-3.4-0.8-6-2.3-7.9
		c-1.6-1.9-3.9-2.8-7.1-2.8v-6.7c3.2,0,5.6-0.9,7.1-2.8c1.6-1.9,2.3-4.5,2.3-7.9v-9.4c0-5.2,1.2-9.6,3.7-13.2
		c2.5-3.6,6.7-6.3,12.6-7.9l1.8,5.3c-3.3,1.1-5.7,3-7.1,5.7c-1.4,2.7-2.1,6.1-2.1,10.1v9.4c0,3.2-0.6,6-1.9,8.4
		c-1.3,2.4-3.2,4.3-5.8,5.7c2.6,1.4,4.5,3.3,5.8,5.7s1.9,5.2,1.9,8.3v9.3c0,4,0.7,7.3,2.1,10.1c1.4,2.7,3.8,4.6,7.1,5.7L383.6,804.4
		z"/>
	<path fill="#F47D67" d="M424.7,721.8h8.9v46.9c0,6.1-1.9,11-5.6,14.7c-3.7,3.6-8.6,5.4-14.5,5.4c-6.1,0-10.9-1.6-14.5-4.8
		c-3.6-3.2-5.3-7.9-5.2-14l0.1-0.3h8.6c0,4.1,1,7.2,2.9,9.2s4.6,3,8.1,3c3.3,0,6-1.2,8.1-3.6c2.1-2.4,3.1-5.6,3.1-9.5V721.8z"/>
	<path fill="#F47D67" d="M488.9,771.2c0-3-1.1-5.5-3.2-7.5c-2.1-2-5.9-3.8-11.3-5.2c-6.7-1.7-12-4.1-15.7-7.4
		c-3.8-3.2-5.7-7.3-5.7-12.2c0-5.2,2-9.5,6.1-12.9c4.1-3.4,9.3-5.2,15.8-5.2c7,0,12.5,2,16.6,5.9c4.1,3.9,6.1,8.6,6,13.8l-0.1,0.3
		h-8.5c0-3.8-1.3-6.9-3.9-9.3c-2.6-2.5-6-3.7-10.1-3.7c-4.2,0-7.4,1-9.6,3c-2.2,2-3.3,4.7-3.3,7.9c0,2.9,1.2,5.3,3.7,7.2
		c2.4,1.9,6.4,3.6,11.9,5.1c6.7,1.7,11.7,4.3,15.2,7.6c3.5,3.4,5.2,7.5,5.2,12.4c0,5.3-2.1,9.6-6.3,12.8c-4.2,3.2-9.7,4.9-16.4,4.9
		c-6.4,0-12-1.8-16.9-5.4c-4.9-3.6-7.3-8.4-7.1-14.3l0.1-0.3h8.5c0,4.1,1.6,7.3,4.7,9.6s6.7,3.4,10.7,3.4c4.2,0,7.6-1,10.1-2.9
		C487.6,777.1,488.9,774.5,488.9,771.2z"/>
	<path fill="#F47D67" d="M508.3,799c3.3-1.1,5.7-3,7.1-5.7c1.4-2.7,2.1-6.1,2.1-10.1V774c0-3.2,0.7-6.1,2-8.5
		c1.4-2.4,3.5-4.3,6.3-5.6c-2.8-1.2-4.9-3.1-6.3-5.5c-1.4-2.4-2-5.3-2-8.6v-9.4c0-4-0.7-7.4-2.1-10.1c-1.4-2.7-3.8-4.6-7.1-5.7
		l1.9-5.3c5.9,1.7,10.1,4.3,12.5,7.9c2.5,3.6,3.7,8,3.7,13.2v9.4c0,3.4,0.8,6.1,2.3,7.9c1.5,1.9,3.9,2.8,7.2,2.8v6.7
		c-3.3,0-5.7,0.9-7.2,2.8c-1.5,1.9-2.3,4.5-2.3,7.9v9.3c0,5.1-1.2,9.5-3.7,13.2c-2.5,3.6-6.7,6.3-12.5,7.9L508.3,799z"/>
</g>
</svg>
