<?xml version="1.0" encoding="utf-8"?>
<!-- Generator: Adobe Illustrator 19.2.0, SVG Export Plug-In . SVG Version: 6.00 Build 0)  -->
<svg version="1.1" id="Layer_1" xmlns="http://www.w3.org/2000/svg" xmlns:xlink="http://www.w3.org/1999/xlink" x="0px" y="0px"
	 viewBox="0 0 100 100" style="enable-background:new 0 0 100 100;" xml:space="preserve">
<style type="text/css">
	.st0{opacity:0.6;}
	.st1{fill:none;stroke:#F47D67;stroke-width:1.5;stroke-miterlimit:10;}
	.st2{fill:#FFFFFF;stroke:#F47D67;stroke-width:1.5;stroke-miterlimit:10;}
	.st3{fill:none;stroke:#F47D67;stroke-linecap:round;stroke-miterlimit:10;}
	.st4{fill:#F47D67;}
</style>
<g class="st0">
	<path class="st1" d="M79.1,22.5H32.3c-3.2,0-5.8,2.6-5.8,5.8v30h9c0.9,0,1.7,0.8,1.7,1.7v7.1h21.9l6.3,5.5c1.1,1,2.9,0.2,2.9-1.3
		v-4.2h10.9c3.2,0,5.8-2.6,5.8-5.8v-33C85,25.1,82.4,22.5,79.1,22.5z"/>
	<path class="st2" d="M17.8,53.8h21.9c1.5,0,2.7,1.2,2.7,2.7V72c0,1.5-1.2,2.7-2.7,2.7H27.2l-3,2.6c-0.5,0.5-1.3,0.1-1.3-0.6v-2
		h-5.1c-1.5,0-2.7-1.2-2.7-2.7V56.6C15,55,16.3,53.8,17.8,53.8z"/>
	<g>
		<path class="st3" d="M52.4,47.5c0.7-1.1,2-1.8,3.4-1.8s2.6,0.7,3.3,1.7"/>
		<circle class="st4" cx="44" cy="43.1" r="1"/>
		<circle class="st4" cx="67.4" cy="43.1" r="1"/>
	</g>
</g>
</svg>
