<?xml version="1.0" encoding="utf-8"?>
<!-- Generator: Adobe Illustrator 19.1.0, SVG Export Plug-In . SVG Version: 6.00 Build 0)  -->
<svg version="1.1" id="Layer_1" xmlns="http://www.w3.org/2000/svg" xmlns:xlink="http://www.w3.org/1999/xlink" x="0px" y="0px"
	 viewBox="150 -225 500 500" style="enable-background:new 150 -225 500 500;" xml:space="preserve">
<style type="text/css">
	.st0{fill:#CCCCCC;enable-background:new    ;}
	.st1{fill:#FFFFFF;}
</style>
<rect x="71.2" y="-254.9" class="st0" width="657.7" height="571.8"/>
<path class="st1" d="M313.9-93.4h172.2c8.9,0,16.5,3.2,22.8,9.5s9.5,13.9,9.5,22.8v172.2c0,8.9-3.2,16.5-9.5,22.8
	s-13.9,9.5-22.8,9.5H313.9c-8.9,0-16.5-3.2-22.8-9.5c-6.3-6.3-9.5-13.9-9.5-22.8V-61.1c0-8.9,3.2-16.5,9.5-22.8
	C297.4-90.2,305-93.4,313.9-93.4z M496.9,83.3l-53.8-53.8l-92.4,92.4h135.5c3,0,5.5-1.1,7.6-3.2s3.2-4.6,3.2-7.6V83.3H496.9z
	 M486.1-71.9H313.9c-3,0-5.5,1.1-7.6,3.2c-2.1,2.1-3.2,4.6-3.2,7.6v172.2c0,3,1.1,5.5,3.2,7.6c2.1,2.1,4.6,3.2,7.6,3.2h6.3L443.1-1
	l53.8,53.8V-61.1c0-3-1.1-5.5-3.2-7.6C491.6-70.8,489.1-71.9,486.1-71.9z M356.9-50.3c8.9,0,16.5,3.2,22.8,9.5
	c6.3,6.3,9.5,13.9,9.5,22.8S386-1.5,379.7,4.8c-6.3,6.3-13.9,9.5-22.8,9.5s-16.5-3.2-22.8-9.5c-6.3-6.3-9.5-13.9-9.5-22.8
	c0-8.9,3.2-16.5,9.5-22.8C340.4-47.2,348-50.3,356.9-50.3z M356.9-28.8c-3,0-5.5,1.1-7.6,3.2c-2.1,2.1-3.2,4.6-3.2,7.6
	s1.1,5.5,3.2,7.6c2.1,2.1,4.6,3.2,7.6,3.2s5.5-1.1,7.6-3.2c2.1-2.1,3.2-4.6,3.2-7.6s-1.1-5.5-3.2-7.6
	C362.5-27.8,359.9-28.8,356.9-28.8z"/>
</svg>
