<?xml version="1.0" encoding="utf-8"?>
<!-- Generator: Adobe Illustrator 18.1.0, SVG Export Plug-In . SVG Version: 6.00 Build 0)  -->
<svg version="1.1" id="Calque_1" xmlns="http://www.w3.org/2000/svg" xmlns:xlink="http://www.w3.org/1999/xlink" x="0px" y="0px"
	 viewBox="39.8 100.6 218.3 218.3" enable-background="new 39.8 100.6 218.3 218.3" xml:space="preserve">
<path fill="#F27D67" d="M244.3,100.6c3.9,0,7.2,1.4,9.7,4c2.6,2.6,3.9,5.8,4,9.7c0,3.9-1.3,7.1-4,9.7l-85.9,85.7l85.9,85.7
	c2.7,2.7,4,5.9,4,9.7c0,3.9-1.4,7.2-4,9.7c-2.6,2.6-5.8,3.9-9.7,4c-3.9,0-7.1-1.3-9.7-4l-85.7-85.9l-85.7,85.9c-2.7,2.7-5.9,4-9.7,4
	c-3.9,0-7.2-1.4-9.7-4s-3.9-5.8-4-9.7c0-3.9,1.3-7.1,4-9.7l85.9-85.7L43.7,124c-2.7-2.7-4-5.9-4-9.7c0-3.9,1.4-7.2,4-9.7
	s5.8-3.9,9.7-4c3.9,0,7.1,1.3,9.7,4l85.7,85.9l85.7-85.9C237.2,101.9,240.5,100.6,244.3,100.6z"/>
</svg>
