<?xml version="1.0" encoding="utf-8"?>
<!-- Generator: Adobe Illustrator 19.1.0, SVG Export Plug-In . SVG Version: 6.00 Build 0)  -->
<svg version="1.1" id="Layer_1" xmlns="http://www.w3.org/2000/svg" xmlns:xlink="http://www.w3.org/1999/xlink" x="0px" y="0px"
	 viewBox="0 0 50 50" style="enable-background:new 0 0 50 50;" xml:space="preserve">
<style type="text/css">
	.st0{fill:#2DBBAE;}
</style>
<path class="st0" d="M46.1,8.6c0.7,0,1.2,0.2,1.7,0.7c0.4,0.4,0.7,1,0.7,1.7c0,0.7-0.2,1.2-0.7,1.7L19.6,40.8
	c-0.5,0.5-1,0.7-1.7,0.7s-1.2-0.2-1.7-0.7L2.2,26.7c-0.5-0.5-0.7-1-0.7-1.7c0-0.7,0.2-1.2,0.7-1.7c0.4-0.4,1-0.7,1.7-0.7
	c0.7,0,1.2,0.2,1.7,0.7L18,35.8L44.5,9.2C44.9,8.8,45.5,8.6,46.1,8.6z"/>
</svg>
